<?xml version="1.0" encoding="utf-8"?>
<!-- Generator: Adobe Illustrator 16.0.0, SVG Export Plug-In . SVG Version: 6.00 Build 0)  -->
<!DOCTYPE svg PUBLIC "-//W3C//DTD SVG 1.0//EN" "http://www.w3.org/TR/2001/REC-SVG-20010904/DTD/svg10.dtd" [
	<!ENTITY ns_flows "http://ns.adobe.com/Flows/1.0/">
	<!ENTITY ns_extend "http://ns.adobe.com/Extensibility/1.0/">
	<!ENTITY ns_ai "http://ns.adobe.com/AdobeIllustrator/10.0/">
	<!ENTITY ns_graphs "http://ns.adobe.com/Graphs/1.0/">
]>
<svg version="1.0" xmlns:x="&ns_extend;" xmlns:i="&ns_ai;" xmlns:graph="&ns_graphs;"
	 xmlns="http://www.w3.org/2000/svg" xmlns:xlink="http://www.w3.org/1999/xlink" xmlns:a="http://ns.adobe.com/AdobeSVGViewerExtensions/3.0/"
	 x="0px" y="0px" width="500px" height="500px" viewBox="0 0 500 500" enable-background="new 0 0 500 500" xml:space="preserve">
<metadata><?xpacket begin="﻿" id="W5M0MpCehiHzreSzNTczkc9d"?>
<x:xmpmeta xmlns:x="adobe:ns:meta/" x:xmptk="Adobe XMP Core 5.3-c011 66.145661, 2012/02/06-14:56:27        ">
   <rdf:RDF xmlns:rdf="http://www.w3.org/1999/02/22-rdf-syntax-ns#">
      <rdf:Description rdf:about=""
            xmlns:dc="http://purl.org/dc/elements/1.1/">
         <dc:format>image/svg+xml</dc:format>
         <dc:title>
            <rdf:Alt>
               <rdf:li xml:lang="x-default">01_ERROR 404</rdf:li>
            </rdf:Alt>
         </dc:title>
      </rdf:Description>
      <rdf:Description rdf:about=""
            xmlns:xmp="http://ns.adobe.com/xap/1.0/"
            xmlns:xmpGImg="http://ns.adobe.com/xap/1.0/g/img/">
         <xmp:CreatorTool>Adobe Illustrator CS6 (Windows)</xmp:CreatorTool>
         <xmp:CreateDate>2020-03-02T20:08:42+01:00</xmp:CreateDate>
         <xmp:ModifyDate>2020-03-02T20:08:42+01:00</xmp:ModifyDate>
         <xmp:MetadataDate>2020-03-02T20:08:42+01:00</xmp:MetadataDate>
         <xmp:Thumbnails>
            <rdf:Alt>
               <rdf:li rdf:parseType="Resource">
                  <xmpGImg:width>224</xmpGImg:width>
                  <xmpGImg:height>256</xmpGImg:height>
                  <xmpGImg:format>JPEG</xmpGImg:format>
                  <xmpGImg:image>/9j/4AAQSkZJRgABAgEASABIAAD/7QAsUGhvdG9zaG9wIDMuMAA4QklNA+0AAAAAABAASAAAAAEA&#xA;AQBIAAAAAQAB/+4ADkFkb2JlAGTAAAAAAf/bAIQABgQEBAUEBgUFBgkGBQYJCwgGBggLDAoKCwoK&#xA;DBAMDAwMDAwQDA4PEA8ODBMTFBQTExwbGxscHx8fHx8fHx8fHwEHBwcNDA0YEBAYGhURFRofHx8f&#xA;Hx8fHx8fHx8fHx8fHx8fHx8fHx8fHx8fHx8fHx8fHx8fHx8fHx8fHx8fHx8f/8AAEQgBAADgAwER&#xA;AAIRAQMRAf/EAaIAAAAHAQEBAQEAAAAAAAAAAAQFAwIGAQAHCAkKCwEAAgIDAQEBAQEAAAAAAAAA&#xA;AQACAwQFBgcICQoLEAACAQMDAgQCBgcDBAIGAnMBAgMRBAAFIRIxQVEGE2EicYEUMpGhBxWxQiPB&#xA;UtHhMxZi8CRygvElQzRTkqKyY3PCNUQnk6OzNhdUZHTD0uIIJoMJChgZhJRFRqS0VtNVKBry4/PE&#xA;1OT0ZXWFlaW1xdXl9WZ2hpamtsbW5vY3R1dnd4eXp7fH1+f3OEhYaHiImKi4yNjo+Ck5SVlpeYmZ&#xA;qbnJ2en5KjpKWmp6ipqqusra6voRAAICAQIDBQUEBQYECAMDbQEAAhEDBCESMUEFURNhIgZxgZEy&#xA;obHwFMHR4SNCFVJicvEzJDRDghaSUyWiY7LCB3PSNeJEgxdUkwgJChgZJjZFGidkdFU38qOzwygp&#xA;0+PzhJSktMTU5PRldYWVpbXF1eX1RlZmdoaWprbG1ub2R1dnd4eXp7fH1+f3OEhYaHiImKi4yNjo&#xA;+DlJWWl5iZmpucnZ6fkqOkpaanqKmqq6ytrq+v/aAAwDAQACEQMRAD8A9U4q7FXYq7FXYq7FXYq7&#xA;FXYqgNP/AOOhqn/GaP8A5MR5bk+mPu/SXHxfXP3j/chH5U5DsVdirsVdirsVdirsVdiqA1T+/wBN&#xA;/wCYof8AJmXLcfKXu/SHHz84f1v0FH5U5DsVdirsVdirsVdirsVdirsVdirsVdirsVdirsVdiqA0&#xA;/wD46Gqf8Zo/+TEeW5Ppj7v0lx8X1z94/wByEflTkOxV2KuxV2KuxV2KuxV2KoDVP7/Tf+Yof8mZ&#xA;ctx8pe79IcfPzh/W/QUflTkOxV2KuxV2KuxV2KuxV2KuxV2KuxV2KuxV2KuxV2KoDT/+Ohqn/GaP&#xA;/kxHluT6Y+79JcfF9c/eP9yEflTkOxV2KuxV2KuxV2KuxV2KoDVP7/Tf+Yof8mZctx8pe79IcfPz&#xA;h/W/QUflTkOxV2KuxV2KuxV2KuxV2KuxV2KuxV2KuxV2KuxV2KoDT/8Ajoap/wAZo/8AkxHluT6Y&#xA;+79JcfF9c/eP9yEflTkOxV2KuxV2KuxV2KuxV2KoDVP7/Tf+Yof8mZctx8pe79IcfPzh/W/QUflT&#xA;kOxV2KuxV2KuxV2KuxV2KuxV2KuxV2KuxV2KuxV2KoDT/wDjoap/xmj/AOTEeW5Ppj7v0lx8X1z9&#xA;4/3IR+VOQ7FXYq7FXYq7FXYq7FXYqgNU/v8ATf8AmKH/ACZly3Hyl7v0hx8/OH9b9BR+VOQ7FXYq&#xA;7FXYq7FXYq7FXYq7FXYq7FXYq7FXYq7FXYqgNP8A+Ohqn/GaP/kxHluT6Y+79JcfF9c/eP8AchH5&#xA;U5DsVdirsVdirsVdirsVdiqA1T+/03/mKH/JmXLcfKXu/SHHz84f1v0FH5U5DsVdirsVdirsVdir&#xA;sVdirsVdirsVdirsVdirsVdiqA0//joap/xmj/5MR5bk+mPu/SXHxfXP3j/chH5U5DsVdirsVdir&#xA;sVdirsVdiqA1T+/03/mKH/JmXLcfKXu/SHHz84f1v0FH5U5DsVdirsVdirsVdirsVdirsVdirsVd&#xA;irsVdirsVdiqA0//AI6Gqf8AGaP/AJMR5bk+mPu/SXHxfXP3j/chH5U5DsVdirsVaZlRSzGijqcQ&#xA;EE0hG1KMH4UJHj0yzwy1HMFeC5imHwmhHVT1yMokM4zElXIs3YqgNU/v9N/5ih/yZly3Hyl7v0hx&#xA;8/OH9b9BR+VOQ7FXYq7FXYq7FXYq7FXYq7FXYq7FUFquqQadb+pJ8TttHGOrH+mYWu10dPDiO5PI&#xA;ORptPLLKgxO58x6tOxIm9JT0SMUp9PX8c5LN2xqJn6uEeX4t3ePQ4o9L96Fi80a3YTKzTG5tyd45&#xA;d/o5faGX6XtbNHmeL3t0uz8OUcuGXkzfSdVttUs1uYKgV4uh6qw6g51el1Mc0OKLz2p00sM+GSMz&#xA;IcdAaf8A8dDVP+M0f/JiPLcn0x936S4+L65+8f7kI/KnIdirsVQ9zeLC3ELybqe1MnGFtU8nCg7m&#xA;7MyqvHiBuRWtcsjCmmeTiQ+Ta18MhjkVx2O48RgIsJjKjaPgv1kkCFeJPQ1rlUoU5MctmkVlbagN&#xA;U/v9N/5ih/yZly3Hyl7v0hx8/OH9b9BR+VOQ7FXYq7FXYq7FXYq7FXYq7FXYq7FWE+abhpdWdCfh&#xA;hVUUfMcj+Jzie28plqCOkaH6XoezoViB70ozUOcoXwBgNexFMsxc23D9SbeQbl01SW3r+7miJI/y&#xA;kIofuJzoexchGUx6Efc4PbOMHGJdQWfZ1DzKA0//AI6Gqf8AGaP/AJMR5bk+mPu/SXHxfXP3j/ch&#xA;H5U5DsVdiqEurJpX5oQD0IOWRnTTkxWbCh+jZ/5l+8/0yXiBh4Jd+jZ/5l+8/wBMfEC+CXfo2f8A&#xA;mX7z/THxAvglVt7B0lDuwIXcAeOCU7DKGIg2UblTegNU/v8ATf8AmKH/ACZly3Hyl7v0hx8/OH9b&#xA;9BR+VOQ7FXYq7FXYq7FXYq7FXYq7FXYq7FWH+bbN478XIH7ucD4vBlFKfcBnHdvacxy8fSX3h33Z&#xA;uUGHD1CRZo3YoG9nDERqagbk++ZGKFbuTihW7I/IGnyNcz37CkSL6UZPdmIJp8gPxzoexcBMjPoN&#xA;nU9tZxwiHXm828+fm95muddubLRLlrHT7WVoYzEB6krI3EuWILbnoB2z0rR9m4xAGYuRfLdf2vll&#xA;kMcZ4Yg170jtvzU/MPTp5kbUG9UtSeOeGItzQBPi5JyBAWnXMiXZ+CYG32uJHtTUwJ9W/WwE5tfz&#xA;985xCk0FlcDxaORW/wCEkA/DMeXY+I8jIOTDt/OOYifh+1OLX/nIq5G13oaP/lRXBSn0Mj/ryiXY&#xA;g6S+xyoe0R/ih9v7E4tP+chPLL0F1p15CT3j9KUD73jP4ZRLsXJ0IcmHtDiPOMh8k4tPzt/L+enq&#xA;Xc1qT2lgkP8AybEmUS7KzjpfxciHbemPMkfD9VpzafmP5Euqelrlotf9+yCH/k7wyiWhzD+EuVDt&#xA;LTy5Tj933pxaaxpF4QLS+t7gnp6UqPX/AIEnKJYpR5ghyYZoS+mQPxReQbHYq7FUBqn9/pv/ADFD&#xA;/kzLluPlL3fpDj5+cP636Cj8qch2KuxV2KuxV2KuxV2KuxV2KtM6LuzBfmaY0gkBsEEVBqPEYptS&#xA;urWC6haGdA8bdQf1jKs+CGWJjMWCzx5JQNx5sSv/ACPfs5+qXiNEeiygoR7VUNXOeydgEH0EV5/g&#xA;u8w9rwA9Ud/L9q2w/L6T1A19cr6YO8cNST/smAp92W4exDfrlt5JzdtCvRHfzZfBbwWtssNugjii&#xA;FEQbAd832PHGAEYigHQ5MkpEykbL52h/LP8AMPS9Th1Ozigmu7eUTxukqU5g8txJwBzrTrsE4mJu&#xA;i8NHs7UY5icaJBvn+tAeYvLf5h3+sz6vqWjyS3UziSRYY1dDxFAvGItUUWnicswZ8EYCMZbNWp0+&#xA;onMzlHc937Em1+21ea+e5uNKlsKgD0vRdAOIpvyA3zIxSiBQlbi5oTuzEx+CH1m70q5e3OnWZtFj&#xA;iVJgW5cnHVv7e+YfZ2n1GIS8bJ4lyJG1UO78cvNye0M+DIY+DDw6iAd7s/j5pdmyde7FXYq7FUba&#xA;61rFnT6pf3FvTp6UrpT/AIEjwyEsUJcwC2QzTjykR8U4tfzJ8921PT1u6an+/X9b/k5zyiWhwn+E&#xA;OTDtLUR5Tl9/3pxa/nd+YEP95dw3P/GWCMf8mxHmPLsrAehHxcmPbepHMg/AfoTNPz78wSSWz3un&#xA;Wkot5RKBCZIifhZKVZpez5V/I8BdE7t38vZCRxRjsb2sfreweS/OWmea9I+v2QaJ429O5tn3aOSl&#xA;aVHUHs3f57Zo9VpZYZcJel0WthqIcUfiO5P8xnMdirsVdirsVdirsVdiqkbq3FRzBIyXCWHiDvSq&#xA;SR5HLMak5eBTiE2VS1nMUoJNEP2hglGwyxyoppHLHIKowYZQRTliQPJdgS7FVk7cYJD/AJJ/Vhjz&#xA;YzOxSbMlwnYq7FUNc6bp11/vTawz16+pGr/8SB8MlGchyLCWOMuYBSq58ieTrivqaPaivX04xF/y&#xA;b45dHV5R/EWiWhwnnEJXc/lH5Hmrws5LcnvFNJ/xuXGXR7RzDrfwceXZWA9K+KVXP5HeXXqbe+u4&#xA;iezmOQfgiH8cuj2rPqA0S7Fx9DJKrn8iJRvbawreCyQFfxV2/Vl0e1h1j9rRLsM9JfZ+1Krn8kvN&#xA;ce8NxaTjsA7q3/DJT8cuj2pjPMFol2NlHIxKVXP5VeeoKn9Heqo/ailib8OQb8Mtj2hhPVx5dl5x&#xA;/D9oSu58nea7Yn1tIuwB1YQuy/8ABKCMujqcZ5SHzaJaTKOcZfJK5ra4gbjPE8TeDqVP45cJA8mg&#xA;xI5h7N/zjpE4g16U/YZrVV+aiUn/AIkM0PbZ3h8f0PT+zg2mf6v6XsmaJ6V2KtM6IKsQo8TiAgml&#xA;qXELmiuCfDCYlAmCvwMnYq7FUJqTssaqOjE1+jLMY3acx2S7LnGdirsVV7JmW4WnfY/LIzGzZiPq&#xA;TXMdy3YqoXppbP70H45KHNry/SlWZDiOxVSubiO2t3nkNEjFT/T6clGNmgxnMRFliVvrmpvqEb+q&#xA;SryAel+xQmlKZnSwxEXUx1MzO76syzXu4SPVPMotZ2gt4xI6bO7HYHwAGZOPT8QsuFm1nCaAUbLz&#xA;WHlVLqIIrGnqKTQfMHJT022zDHrrNSDIsxHYOxVR+t2vr+h6yet/vvkOX3ZLhNXWzDxI3V7q2RZr&#xA;WRXUq4DKeoIqMUEI7RrO0t4ZDbwxxGR6yemqrUgbVoN8qzSJO5cjTwABoJhlTkKP1y2rT1BX6aff&#xA;kuAsPEj3pbcTNLIWJ2/ZHgMuiKDizlZU8kxTG2vU9KkrUYbVPcZTKG+zkwyit0UrKyhlNQehGVkN&#xA;oNt4padEccXAYeBwg0ggFT+qW/8AvsYeIsfDj3O+qW/++xjxFfDj3O+qW/8AvsY8RXw49y5IIUNU&#xA;QA+OAyJSIgMb/MLzl/hTQfr0UIubyeQW9nC1eJkYE1am9AF6Dr0zK0Wl8adXQG5cLtHWfl8fEBcj&#xA;sHl2hfnf5rttVh/T8McmmzuBJSIxOisB8UZ/aoGDUNajvm4zdk4zE8B9QdDg7czRmPEHpPlT1nzp&#xA;5p0Ly3pS3us3a2lu8gjRirOzOQTxVUDMenhmhwwMjs9JqssYRssO8vfmz5U1/W4tHsRci6nDmF5Y&#xA;eCNwQuQCTX7KnqMyjhkI8XRwI6qJlw72zTKnJYx5mv2mnSwh+LiRzA7uei/Rmbp4UOIut1mWzwBL&#xA;dNtyNZhhO5jm3I/yDX+GW5JegnycbDH94B5s4JABJ6Dc5rXdsM0KNbrWEaVQ4+KRgdxWh/ic2OY8&#xA;MNnT6YcWTdV80JCmoqI1CkxgvQUqan+GR0xPCy1oAnt3MptAwtIQ32vTWvzoMwpcy7PH9I9yjqt+&#xA;tlZvN+2fhiXxY9P65LFDiNMM+XgjbC7UySX0JqTI8qnl3qW65sZbRLp4WZD3vQM1TvnYqgbfVzZ6&#xA;y6uf9Gfisg8Nh8X0YZY7j5tcM3BPyZPKpeFlU7sDQ5ijYuxkLCUmGYGhRq/I5kcQcThPc16Mv8jf&#xA;ccbCOEu9GX+RvuONheEu9GX+RvuONheEpnZRvHBR9iTWnhlMzZcrFEgbq+QbHYq7FXYq7FXYqxj8&#xA;w/J7+adCFpbz/Vr+2lW5spySFEiAijFdwCD1HQ75l6LU+DOyLidi4HaOj8fHwg1IGw8u0/8AJ/8A&#xA;MC+vl/Tl6kVnBQ8ppjcK4jACqI1YbEIoNSNs3E+08ER6BufKnQ4+x9TOX7w1Ed5tJ/8AnJG71G71&#xA;fR5ypOjwxyxwsB8InYguT4FlVaV8PnmFogI83L7UmZnbkyT8vrW7WO2sfWkk4xmSKWRVV4hx+z8A&#xA;U/5O++efmB1Wql4f7s77xJrbrz6+T6FLDHTaSMpk5OW0gOXdy6BmL6hqNnIYpHWUjxo34ih+/Ae1&#xA;NVpJ8EzGdfH7efzcYaHBqIcUQYfju5fJDaBaxvfS3dxKrmInjU7lzuW+jOx0faY1eHijEx3o/sPV&#xA;5XP2adNmqchLax+0dEN5eBl1pJD25ufpBH8c2mfaDrNLvktlN+/p2Nw/8sbn/hTmDAXIOzymok+T&#xA;HPKaVvpX/ljI+ksP6Zmao+l1+hHqJ8lDzATLrToO3BB9IH9clg2g16rfJTMQAAAOg6Zr3cMT1W4k&#xA;1XVUtYDWNDwQ9q/tPmfijwRsuqzzOXJwhD6fCn6djiTdEmPGvghJH6slkPovya8Uf3oA72a5rncu&#xA;xVjF63K8mP8AlkfcaZfHk4MzuWVeWNR+sWn1eQ1lt9h4lO33dMxM0KNuy0mXijR5hOcpct2KuxV2&#xA;KuxV2KuxV2KuxV2KuxV2Ksd17W0KNbwt+7G0jj9o/wAo9sjqM8NPjOSbTGMs8/Dh8Sxm4uGnt5La&#xA;QK0EtOcZANaGo6+B3zjdV27qMtixGJ6Afpej0vZWLEQechvfn7lCzjSyjkS1rEkprJQnegp1PbNb&#xA;DVZIxMYyoHnTsM0BkkJTFkclazsbnUGZYT6cK7PORUV8FHfM3szsueplZ2xjmf0Dz+5xddrY6ePf&#xA;M8h+kuu/K9xbwSTCdGSNS5qCCQBX3z03TSx44jHCPDEbB891WHJORyTlxS5lDaHa3c18rWzcPSIa&#xA;Rq0+Gu/zrmRmkBHdxdNCRlt0ZPrrlNJuSP5QPvYD+OYWEesOz1JrGUr8oKP9Kbv8A/4ll2qPJxdA&#xA;OaXt+/8AMniDcgfQrf0GWjbH8Gg+rN/nMi167e102R4zR3IjU+HLqfuzEwR4pOw1OQxgaY/oOoaf&#xA;ZPJJcBzK3woQAQF798y88JS2DgabLCFk81mgyxjV45JmC15UJ/mYEfxw5weCgx0sh4gJZpmudy7F&#xA;WJu3J2bxJP35e68ojTr17K8juE3Cmjr4qeoyM48QpniyGErZ7DNHNEksbco3FVYeBzBIp3cZAiwv&#xA;wJdirsVdirsVdirsVdiq15Y03dwo9yB+vDSCQEHca1p8IP7z1G/lTf8AHp+OTGMlqlqIDqkl/rVz&#xA;dAov7qE9VB3PzOXRxiO7h5M5lsOSQzyGWSi7gbKM4HtXWy1eYRhvEbRHf5/H7nrez9JHTYuKW0ju&#xA;fLyUmUqxU9R1zV58JxTMDzi7DDlGSIkORQ96SID7kDKXIxc2axxRxRrHGoRFFFUbAZ6rjxxhERiK&#xA;AfP5zMiTI2S1PCk0Lwv9iRSrU60OWRNG2uURIUUJpekQaeJPTZnaSlWanQdBt88syZTNqw4BjukV&#xA;dW6XFvJA/wBmRSpPh75CMqNts4CQILFW0PW7SVvq3IqdvUifjUe4qDmb40JDd1Z02WB9P2I/QtBu&#xA;ILgXV0ArKD6cdQTU7VNNsrzZgRQb9NpjE8Uk8nt4biIxTIHjbqpzFjIg2HNlESFFKdQ0DS47SeZI&#xA;irxozLRmO4BI6k5fDPIkBxculgIkgJR5e06K8umaUnhBxag7muwP3ZkZ8hiNuriaTEJy36MxzXu3&#xA;U7huFvK38qMfuGEMZHZi2XuC7FU30PXWsT6M1XtWNduqE9x7e2U5MXFuObk6fUcGx5Mut7m3uIxJ&#xA;BIsiHupr9/hmIQRzdpGYkLCpgZOxV2KuxV2KoDU9WisxwA5zkbJ2Hucshjtoy5hD3seudTvbgn1J&#xA;SFP7C/Cv3DMgQAcGWWUuZQ2Sa3Yq7FUHMhhlEi/ZrXOK7S0p0Wojnx/QT/aPiOT1Wh1A1WA4p/UB&#xA;/YfgoM4di67qxqPkc0OryjJmnMcpSJ+13GmxmGOMTzEQENfH9yP9YfqOYzl4ubNo5UdFIYEkA7HP&#xA;VoGwC+eyoEhfkkOxV2KuxV2KuxV2KqcUEEIIhjWME1IRQtT9GEyJ5sYxA5BUwMlC9p9VkB6EU+/b&#xA;CObGfJjskDr0+JfHLgXCMVPCh2Kro5ZI25RuUYdGUkH8MBCgkckxtfMeqwEVk9Zf5ZBX8ev45XLD&#xA;EuRDVTHW0/07zLZXREcv+jzHYBjVSfZv65RPCQ5uLVxlsdim+UuU7FUNqF4LS1eXq3RB4semShGy&#xA;15Z8MbYhI7yOzueTsasT3OZgDqyb3axQom6iF2LU7SMnqL7gGh+7J8Jq2HiDi4eqtkGbsVWSRiSN&#xA;kPRhSuUarTRzYzCXIt2nzyxTE48w80tPza0J3aE2tyPS+HkojYGhpUfEM54exOpl9M4fHiH6C7Q+&#xA;2OnH1Qn8K/WFLV/zU0dLdWhtLiRuVCH4IKUPcM+Eew+pH1zgB5cR/QEx9tdP/DCZPnQ/SXqMZUop&#xA;UhlIFGG4I8c6aMaAHc6WUrNrw7r9liPkcK2oahrq6bbNcXM/pwoKu7nYCtPfvmu1mtOOcceOByZZ&#xA;8ohzdNpxKEsk58GOPMlfpfmNdQtluLaVZoXFUcbgitPbBo9Yck5YskDjyw5hOowiEI5MchPHLkUc&#xA;upy91U/KozY8LieIVQamO8f3HBwp8ReNSgPUMPoH9ceFPiBUF9bH9unzBwUU8YXfWbehPqLQCp3y&#xA;MiIgk8gzj6jQ5pCfPGkjVv0ZzX60d/R5fHSlelKVpvSuaT+Vc3B43gy/L3XF9l1+O63Y/k8XieD4&#xA;kfHr6ft/H3JrfXEbQhEPIvQ7eHXN5jkJASHIurzbek80BljQtZFbqAcKKUntVO6Gh8D0w2xMEOyM&#xA;powphYENYVdiqf6BrzxOtpdNWE7RSHqp7AnwzHy4r3Dm6bU16ZcmVZiuyY75juC9ykAPwxrU/wCs&#xA;39mZOEbW4GqlZpKMtcVTnmjgheaU8Y4wWY+wyUQSaDGUhEWWN6/cyrNa38PwyRqkgHgG6g/qzNwR&#xA;FGJdbqpkETDIbK7iu7WO4j+xIK08D3H0HMKcTE0XY48gnEEdVV3VFLsaKoJY+AGABkTS7Al8pafJ&#xA;wuVHZvhOdDhNSeWyi4o7UVrasfAg/jTMjMPS0Yj6n0b5bnM/l3S523MtnA5Pu0SnOayD1H3vWYTc&#xA;B7gjZrmCDj6r8eVade3yzB1OtxYK8SXDfJzdNo8ua/DHFTDfOHmvyLNHNpGp39JPhE0aJLyXo6nk&#xA;FK1G2Y8tNmzThq9KRxRBri5Ecv1/rZT1GHFGel1INSq65g8/1fqTLyjcaDb6PENPd1s9/QaQMGdW&#xA;PIvuAdyfDMCOpji1M8uqyQ8aQqo7iPlt125OdDTSy6eOPTY5+DE2DLYy89+m/Nq8/MjyVZ3Ulrca&#xA;mqTwtxkQRTNRh1FVQjOjwxOWAnHeMuX4Los2WOKZhI1KPP8AATe21vS7q3iuYJ+UMyh42KutVYVB&#xA;owB6ZrMva2mxyMJTAlE0efP5Ozxdl6jJETjC4yFjlySe5/MvyRbXEtvNqarNCxSRRFM1GU0IqqEZ&#xA;tMWOWSIlEemQsOry5oY5GMj6ominUWr6dLEksc1UkUMhKsDRhUbEAjNVPtjSxkYmYse/9Ttodk6m&#xA;QBEDR9yRTfmf5EjkeF9UXkhKNSKdhUGhoQhB+jNpLSyyQqtpD73UjVwxz57xP3IU6ToP+IF1kJMb&#xA;tmA5UIjFV4eoVND9n/azkTny/lvyvj4fy/ffqq7qu++nwt6X8tj/ADP5jwcvj91em6q77q6/YiV/&#xA;M/yIHEK6oGavAAQzmp6bER7512LSShAAD0xH2B5vJrITmST6iWV5FsdirsVWuiutDhQRaDkQo3E/&#xA;Qck1EUtwq7FWa+XdQN3YBXNZYDwc9yP2T92YWWNF22lycUd+YSLUZPUv53/yyB8hsP1ZfAUA4eU3&#xA;IofJNaTeaHf9HGJf26k/JaHMnSj1W4WuPopC3SJc6ZaTfajkhWNyOxA/rXLcZqRHm05BxQifJb5R&#xA;mlje6sX3EZDr9Ox+/bBqo8inQSIJiUT5k1MRWslvEfjkHBiPftkdPis2Wesz1HhCeZiOe+S0YqwY&#xA;dVII+jN6DTzJFpxdUe1cjoVqP15nZN4lxIbSe7/lxctc+SNIkYklYTFv4RO0Y6+y5zeoFTL1OlN4&#xA;wjPNF5a2OmvfXIqlujMFrSrGgVf9kaDOW7a0UtVnwYo85GXwHps/APR9l64aXDmyy5REfjzofEvE&#xA;tF8vDzD5hVJgxM8jT3cgJ2SvJz9NaDOy7UzYuz9GZRH0gRgPPkP1nyDxfZuLJr9WBI/UTKR8uZ/U&#xA;Pe9a1iXT9F0WW5EYVLdAkEQJALU4oo9v4Z5N2bop63VRx3vM3I+XOR/HV9U7Q18dHpjPaoCoj7AP&#xA;x0eT+WPK8Wu66kcys0RJnu5ORqVBqd/FiaZ6v25q4aHSGUdpfTAef7Bu+W9jaWet1QjLeP1SPl+0&#xA;7PU/M13aaNok1wqhZAvpWyDYc2FFoP8AJ6/RnlvYnZx1uqjA/Tzl7hz+fL4vpvbHaf5PTSmOfKPv&#xA;6fLn8HmXkrylbaxraetGWtbf99ckk/FQ/Cp/1j+Fc9M9pdfHR6UmO2Sfpj+k/AfbT5x7O6KWr1I4&#xA;t4Q9Uv0D4n7Lekecr220vQp5FqLicGG3oSDycfaH+qKnPOfZzs383q4xI9EfVL3Dp8Ts+he0Hah0&#xA;ulkQfXL0x956/AbvPfIPlK11PWlmliLWtlSWSpJDPX4FP0iv0Z6B7V68aXTcMf7zJsPIfxH9HvLw&#xA;XsxojqdTxS/u8e59/Qfp+DO/Pl9b6boUkabXN6DBEKmoUj42+hfxIzhvZXsz81qwT9GP1H/ej5/Y&#xA;C9t7TdqnTaUgH15PSP0n5faQw38t/KVre6v+kJYybewIZKk0M3VP+B+192dn7Wa8afEMUPry/wC5&#xA;6/Pl83jvZbRHPlOWX0Y/910+XP5Pb8sb1ruqIXY0VRUn2yGTJGETKRqIZ48cpyEYiyWopY5UEkZ5&#xA;I3Q5HBnhlgJwNxLLNhnikYTFSC/LWpSuE5JXuu+EMZBCZNrdiqd+U7gpqDQ1+GZDt/lLuPwrlGcb&#xA;OXopVOu9Cu3J2bxJP35NrJaxQhr6zW6i41o67qf4HLMc+EtWXHxhjii60mSSKVC9hJ/eRdSn+Wny&#xA;zNNT3HN1o4sRIP0n8bNQXcdi97dg1LcYo2HQmnIkf8LjKPHQWGTw+KXwQUKz3EyX92pW0jaqKesj&#xA;V2RO5LHqcnIgDhHNpiDI8cvp+9mqu6Wwkn2dU5S06VAq1M1p57O7iTW/N8p21vJc3MVvEKyzOsaD&#xA;xZjQfic3RNPOgWaZt570aPS9eu7OJeMBRXh/1WQV/wCGrl+lnx4g16zHwZiHp35UknyDpdf+L/8A&#xA;qIkzR6n+8Lv9H/dD8dVv5h6JrusQWVvpsYlgR3e6UuqbgAR/aIr1bJ6OWKGTxJfUBQ+NX9wau0Me&#xA;XJj4IfSTZ+HL7yg/Kug/4Z0+a81OMpc3DiOilX4oASBVT3NSfozSe0Wn1HaGSMMQAxwF7nmft/Fu&#xA;y7By4ez8Up5TeSZrYXQ/H6EP5qsdZ8zJCmlWxewgYmRmeNOUtP5Wavwqfxy/2d7MHZ/FLLRyS7t6&#xA;j9nM/cHH7e10+0BGOHbHHne1y/YPvKbeSfKs2jae5uYgt7cNWUAqeKrsq1Bp7/Tmt9psOp1uYcA/&#xA;dQG245nmf0fB2fs54OjwnjP72Z32PIch+n4pb548ueZNYvIo7S15WVutVJkjXk7faNCwO3TNn7Ma&#xA;WGixSOT+9mfkByH6XXe0uTLrMkRj/u4D5k8/1fNN/JvlmTRtJ9OaMC7mYyXFCpp2Vag9hmn9o9Nq&#xA;dbqOKMf3cRUdx8T8fuAdt7PTw6PT8Mj+8kblsfgPl9tpH518s+ZtZ1JPq9pysrdeMNZIxVm3dqFq&#xA;+30ZvPZrTw0WA8f97M7/AA5D9PxdJ7RyzazMOD+7gNv0n9HwZD5U8tnR9Hjt2SlzJ+8uSCD8bdq1&#xA;/ZG2c92/pNVrdSZiPoG0dxy+fXm9B2Fl0+j04gT6zvLY8/2cmE+cLLVdY8wtFHDVIWFtboWUb1oT&#xA;uf2m/DOu9ntHHRaUCX1y9Uv1fAfbbyPtBqp6zVen6I+mP6/ifspnflzQP0To8FmEpKBznNRvI27b&#xA;jw6D2Gcb2votXq9VLLw+m6juPpHL9fvL2XZOfT6XTRxX6quWx+o8/wBXuCfZ1Tokk8x+ZNF0oJb6&#xA;hciF7gEqvF3JUbV+BWpvmt7V0Wp1OHw8EeKz6twNviQ5nZ+u0+myieaXD3bE/cCl/lTzjoGo3kul&#xA;2l4JblQZEjKSISFoGpzVQfGgyjsXQarSwlDNDhje28T7+RLk9rdoaXVTjPDLilW+0h94DK83Lqmi&#xA;KimKoAihI8MsaXYqj9Bcpq9sR3Yr/wAECP45XlHpLdpzWQN4q7FXYqgNUdTH6LQmQODRh2OazXdr&#xA;/lJgGN3507LRdkDVwl6hGvJIo7AJHErxFxDybiw+EuQApI9gOmYp9ro/zP8AZfsbo+x/L95Hby/a&#xA;i9GsjcXjXN1IZ3hoYgdkUn2338M2Gh7Z/NcUYw4APO/0Bw9f2D+UMZTnxk8hVcviU7vP95J/+Mbf&#xA;8ROZw5uFLk+dvy1076/520uMiqQyG4c9h6Klx/wygZttRKoF0eljeQM//OGw43Wn36j+8R4HP+oe&#xA;S/8AEzkuy57GKe18e8ZfBO/ygqPJMCk/ZmnA/wCDOYGrHrdhoT+7ZrmK5iX60qtZgMARzHX5HL9P&#xA;9Tj6oelD+WgBbXQAoPrDbf7BMlqfqHua9F9J/rfqTjMZzHYq7FXYq7FWL3qKNYgIABN4lTT3OZ8f&#xA;7v4OqyD96P6zKMwHauxV5R5g84eUtQ1SWS60t7toiYY5/UIBRCaFQD0PXGXZfaJPFizjHA78PD5e&#xA;5xj2poOWTCZyG13+1JovNnlHSNXttVstDkjnjJHqCZtgV4t8JJU1UnI/yX2iCDkziUb5cA3+PMMo&#xA;9qdn0eDAYy6HjO3w5F7Zbzw3EEdxCweGZVkjcdGVhUEfMZNuBtUwJQMv943zyYajzW4UIvSCRqlr&#xA;T/fqfryGT6S2YfrHvVpEZJGRtmUkEe4wAsyKLWKHYqhr0fAp8DT785j2ox3jhLulXzH7Hf8AYE6n&#xA;KPeL+X9qBnbjC59jnGQG71cBZCpoaUgkf+ZqfcP7c7n2dx1jlLvNfL+15r2lyXljHujfzP7EXfus&#xA;dhcu32Uidj8gpOdHHm8xLkXkH5F6d6mr6jqBHw28Cwqf8qZuW30R5nayWwDrOz4+olnX5n2H1ryp&#xA;LKBV7SRJh40rwb8Hrkez51lrvbe08fFiJ7t0F+Tu3lSYeF7MPwXI67+8T2d/dM6zDc9Aaz/vIP8A&#xA;XH6jl+D6nH1P0ofy3/vPdf8AMQ3/ABBMlqfqHua9F9J/rfqTfMZzHYq7FXYq7FWM33/HWt/+YtP1&#xA;nM+P938HV5P70f1mTZgO0Qt5eQwoylqv04jrvmH2icowS8OJlI7CvPr8HK0PhnMBkkIxG5tKfVsf&#xA;99D/AIEZwv8AJ2u/mZPteu/OaP8An4/mFO5GnzQsjQKe4qincYR2frhyhk+1I1miveeP7EboerWU&#xA;8CWyyASp8KR9CVAqKD2Gdp2RDOMAGWMoyjtv1HT9TyvauTTnPeKUZCW+3f1/Wm+bFwEFP/etkw1S&#xA;5rMKEbokZfVbYAVo4Y/Jd/4ZXkPpLbpxcwy+70eyun9RwUkPVkNK/OoIzEjkIdpPBGRtD/4bsf8A&#xA;fkv3r/zTkvGLD8rHzd/hux/35L96/wDNOPjFfysfNa/lfT3Xizy0+a/805javFHPAwmNm/Tx8GfF&#xA;E7oaXyVpci8TNcAd6Mn/ADRmoj2BgHWX2fqdtHtbIOkft/WrweVNNgiEcbyhR4stSfH7ObnTQjhh&#xA;wQGzqtUDnmZzO66Tyvp8kbIzy8XBU7r0Ip/LmQM5DjHSRPexjTfyX8saZdLc2V7qMMqkE8Z0AYDs&#xA;wEe49szMnamSYoiPy/a4OPsXFA3EzHx/YyK+8n6Xe2U9nNJN6NzG8UnFlB4upU0+HrvmJDUSiQR0&#xA;cyeihKJib3SPRfyg8uaNdLcWN5foQavEZk9N/wDXURiuZOXtKeQVIR+Ti4ex8WM3Ey+f7GR/4bsf&#xA;9+S/ev8AzTmJ4xc38rHzUrjylptxH6ckk3GtdmX/AJpycNTKJsMJ6GEhRtZZeTdLs0kSKSYiRzI3&#xA;JlO5AH8o8MZ6mUjvTHHoIQFAlEf4bsf9+S/ev/NOQ8Ytv5WPm7/Ddj/vyX71/wCacfGK/lY+bv8A&#xA;Ddj/AL8l+9f+acfGK/lY+bv8N2P+/JfvX/mnHxiv5WPm7/Ddj/vyX71/5px8Yr+Vj5oGXyJo8lwk&#xA;7ST80kEooyU5D/YdMuGsnVbNB7NxmV2ed/jZHf4bsf8Afkv3r/zTlPjFv/Kx80JP5J0meUyPJPyN&#xA;K0Zabf7HLY6uYFCmmfZ2ORskqf8AgLRv9+T/APBJ/wA0ZL87PyY/yXj7z+Pg7/AWjf78n/4JP+aM&#xA;fzs/Jf5Lx95/HwULH8ttBs7pLmKa5MkdeIZ0I3BXsg8cZ66chRphj7JxQlxAy+z9Sbf4bsf9+S/e&#xA;v/NOUeMXL/Kx81JvKenMxYyTVP8AlL/zTh8csTood5a/wjpv+/Jv+CX/AJpw+PJH5KHeUdp+j2Vg&#xA;S0KkyNsZHNWp4dsrnkMubdiwRhyRuQbnYq7FXYqlnmmaWHyzq80LtFNFZXDxyISrKyxMQykbgg5P&#xA;GPUPemPMPPfyn89Xk9wdE1m4kmkuKy6fc3DMzMRs0fNqk/ZPH6R4ZlanCBuG3JDqE38ranqU/wCZ&#xA;fmKzmu5pbSBCYbd5GaNDyT7KE8V69shkiPDiUSHpCM1z82PKekXz2TtPdzxErN9VRWVGHVSztGCf&#xA;9WuRhppSFoGMlMovPPl+fy7c69ayPcWdoKzxooEymoHEo5XffxyHgy4uEseA3TAfy5/MX6ppeppr&#xA;El9qNxbg3fMt6xEIMcRCmWQHZn5U6UrmTnwWRVBtnDfZn1/540Wy8s2/mKQSvZXPD0o0CmUtJ+zQ&#xA;sFqtDX4u2Y0cJMuHq1CBum9b866PpGlWWpSiW4h1AoLSO3VWkf1F5ggMyilPfGGIyJHcogSV3mXz&#xA;poflyCOTUpGWaYVitIwHmanXavEeFSaYMeKU+SxgShfLP5i+WvMVx9VtJJILuhKW9woR2A3PEqzq&#xA;aeFa5LJglHcplAhC335qeW7PULvT5Yrpry1nW29JEQmRySKx/GNhTflTqMkNNIi0jGUu8s6tqD/m&#xA;d5htbm8lawt4XeOCSVjDHR491VjxWgJyWSI8MGt0yHpDJPLvnLTfMF1dRabBcPb2jFHvmVVgdq7B&#xA;Dy5Go3+z0yqeIxG7CUaRfmmaWHyzq80LtFNFZXDxyISrKyxMQykbgg5HGPUPeiPMPJvLkF5qulR3&#xA;t5+YUmmTuWDWc1y3NQrEAnlcRnfr9nM7IRE0IX+Pc3y2PJnmqfmT5d0K7k0y+NxLcWsEchmRUZZu&#xA;QWgQ86liGrvt13zFjglIWGsYyd2tR/NTy3p1w1vdxXUUq28V0FKISwmVWWMUf7dH3rtsd8MdNI8l&#xA;GMlH63580DRdOtby/eRHvI1mgswoacqy8t1B4inTdqV75CGGUjQQIEqXln8xfLXmK4+q2kkkF3Ql&#xA;Le4UI7AbniVZ1NPCtcOTBKO5WUCELffmp5bs9Qu9PliumvLWdbb0kRCZHJIrH8Y2FN+VOoyQ00iL&#xA;SMZZjmO1uxV2KuxV2KuxV2KuxVKfN/8Ayietf8wF1/yZbJ4vqHvZR5h5jpflSXV/y0sNR0+qa1pc&#xA;s81q6bMyrKWKA+O3Jff55mSycOQg8i2mVSb/ACy1K+1jzPr19sl9dWLGq7D1aotR0p8QrjqIiMQO&#xA;lrkFAJH5Mk8w2kd3Hp+vabos3qFLmHUPTjmJFAfilhkqK/s8uvbLMvCeYJ9zOddzNvyq0m9h1TU9&#xA;ROqWF/b3SgXCWLMCJg9VZo/ThVRTlSg+WY+pkKAohryHZR/Jm0hvPKer2k45Q3E7xSjxV4VU/gcO&#xA;qNSBXKd2IaZpur6vf2nkOdikGmXV08kg7ADw325Bqf6+XykIjj72ZIHqR3kqPUtc8y6No1+n+j+W&#xA;RM8imp+JJKgHts/BfkMjlqMSR/EiewJ7091aex0/84Rd6/xWxkt0/R80wrGjBAoJJ2FHD79ia5XE&#xA;E4qjzYjeGyn5zvtL1fz35dHl6WO51KOZWurq2IdeAZGXk61DcFVyd9hjiBjCXFyTAERNoryNDE35&#xA;oeaJWUGSMyhGI3HKYVp92DMf3cUT+kMW1/Ttdv8Azl5rg0hj6gjZrmFPtywh4+SLT3oadxt7ZdCU&#xA;RCNs4kAC3p35dan5fvPLcEWjoLdbYBLm0JrIkh+0XNBy5Hfl3/DMPPGQlu0zBvdMvN//ACietf8A&#xA;MBdf8mWyGL6h70R5h5l5F0P8s7vy3BPrsloupM0glE140L0DkLVBKlPh9szM08gl6eXubZmV7JlD&#xA;b2rfnUiqqvFFaq0H7QHG2AUgmvbocgSfBR/AqGGKT88T6ihvTtw6VFaMLcAH8cb/AHK/wKOrT2On&#xA;/nCLvX+K2Mlun6PmmFY0YIFBJOwo4ffsTXDEE4qjzUbw2U/Od9per+e/Lo8vSx3OpRzK11dWxDrw&#xA;DIy8nWobgquTvsMcQMYS4uSYAiJtFeRoYm/NDzRKygyRmUIxG45TCtPuwZj+7iif0h6bmG0uxV2K&#xA;uxV2KuxV2KuxVSvLS3vLSe0uU529xG0UyVI5I6lWFQQRUHthBo2oKhpGj6bo9ilhp0PoWkZYpHyZ&#xA;6FjU7uWbqfHDKRkbKSbQll5b8uaPfXWrWtulpcXIP1qbm4Uhm5H4WbgvxeAyRnKQpZT23OySaxpf&#xA;5a6veG41CCKW5P2pkE8RY+LNFwDfM5bHxYjZoGugNuJkmi6fo1jYrDpEUUVpWoENKE9yT1J+eUzM&#xA;id+baJ8W92p6F5c0bQreS30q3+rQyv6ki83erUArWRmPQYzyGXNkZE811v5f0e21e51iC2CaldqE&#xA;uLgFqsoptxJ4j7IrQb4mZIrovEap1j5f0ew1C81C0thFeX5DXcoZjzIJPQkhdzvxAwGZIAPRTIlv&#xA;WdA0fWrcW+qWiXUS1Kc6hlJ2JVloy/QcYzMeSiRHJQ0Pyn5d0MsdLsUt3cUaSrO5HWnNyzU9q4Z5&#xA;JS5lJkTzVLDy3othqd3qdpb+nfX1TdTc5G51PI/CzFRv4DE5CRR5BBkSKdaeW9Fs9XudYt7fhqN4&#xA;pW4n5yHkCQfslig3UdBichIropkapZa+VdBtNXm1e1tvQv7ivryRySKr8uvKMN6Zqd/s9d+uJySI&#xA;o8kmRqkwvLS3vLSe0uU529xG0UyVI5I6lWFQQRUHtkQaNsQWMf8AKqfIP/Vr/wCS9z/1Uy78zPvZ&#xA;+JJN4vK+hQ6wusR23HUVjEKz85D8AUIBxLcPsinTKzklVdEcRql48t6KNcOui3/3KlfTNxzk+zx4&#xA;04cuHT/Jx8Q8PD0RxGqX6zoGj61bi31S0S6iWpTnUMpOxKstGX6DgjMx5KJEclDQ/Kfl3Qyx0uxS&#xA;3dxRpKs7kdac3LNT2rhnklLmUmRPNUsPLei2Gp3ep2lv6d9fVN1NzkbnU8j8LMVG/gMTkJFHkEGR&#xA;IpMsgh2KuxV2KuxV2KuxV2KuxV2KsSvbPUdU16VODyadDIAys5SP4VCtQ+NfAZlxkIx83WZITyZD&#xA;/NBZCNF0kR+n9Th4/wCoK/f1zH8SXe53gQqqCSTW7eX9Shmt2P6NunEc0RNeLHp93UZcD4kaPMOJ&#xA;KPgTBH0FkVxM0ZiCgfvJAhr4EE/wzHAc6Uqpq8maG3eVQCy0oD03IGMRZROVC2/VKyyc3jESgHrR&#xA;hX+au1MaTe+/JbZ3S3EIbkpffkqnpuQNsMo0iE+INXV2kDRKXUF2AYMaEKQd+vtjGNrOdUrNLEqB&#xA;2dQh3DEgDf3wUysc3JJHIvJGDr4qQR+GAhQQeTbOqgFiFBNBU03OKktCWJlLB1KqaMQRQEeOGlsN&#xA;RzwyV9ORXp14kH9WJBUSB5KX1yP64YOaU4im4rz5Ecev4YeHa2HiDipUNxbgAmVAD0+Ib0NMFFlx&#xA;DvXsyqpZiFUbknYDAyJbBruOmKuxV2KuxV2KuxV2KuxV2KuxV2KuxVTS5t3meBZFM0YBeMH4gD0q&#xA;MNGrYiYJrqqYGSQ+bCJobWwTee4mXio6hRUE/jl+DYkuFrNwI9SU0vgT9XAYqTMvxClR8LeNcqj1&#xA;cnJ096nqEMi2chMzsBT4SEofiHgoOGB3Y5Inh5qkX/HQuP8AUj/jgPIMh9Rb07/eNPm3/EjjPmuL&#xA;6W7z7Vt/xmX/AIi2Meq5OnvWqA9/J6m5RFMQPga8iPpx6KN5btyALfRcNmdW9UDuoGxP04jkp+oU&#xA;t1JQ0CKehkQGm3VsYc0ZeXxW3UdJraFeKRfFQMvJeSgcRSq4YnmUTG4HRdNHL6kRkmjV+Q4FYyGP&#xA;iteR2IxBTIGxZXj/AI6Lf8YV/wCJHB0T/H8FHT7eJrIgivq8g59uRGGZ3Y44jh961Xeb07N92jb9&#xA;/wC6p9n/AILbDy3QDfp+aYZW3uxV2KuxV2KuxV2KuxV2KuxV2KuxVL9R0gXMqXVvKba+iFEmUVBH&#xA;8rDuMshkrY7hoy4eI8QNSCHL+agPT9O0LdPWq9P+B65L935sLzcvSq6dozQXLX15N9ZvnFPUpRUH&#xA;ggwTyWKGwZYsFHikbkmLxo/EsK8DyX2I2yu28i3SxJKhRxVT1HTpv2xBpSL2LhEgkaQD42ADH2HT&#xA;G1oXbo40jQIgoo6Dr1Ne+JNqBTnjR+JYV4HkvsRtjakW1LDHLTmKlfssCQR8iKHEGlMQXRQRR1KD&#xA;dvtMSWJ+ZNTiSoiA3JEkgAcVAIYfMbjpiCpALpIo5V4SKGXwOINKQDzWpbQo/MAl6UDMzMQPYsTi&#xA;SgRAXemnqepT4yONfYGuNpre3RRJEgRBRRWg69TXviTagVyUraJw8s0gpJK3TwVdlG2EljAcyVfI&#xA;s3Yq7FXYq7FXYq//2Q==</xmpGImg:image>
               </rdf:li>
            </rdf:Alt>
         </xmp:Thumbnails>
      </rdf:Description>
      <rdf:Description rdf:about=""
            xmlns:xmpMM="http://ns.adobe.com/xap/1.0/mm/"
            xmlns:stRef="http://ns.adobe.com/xap/1.0/sType/ResourceRef#"
            xmlns:stEvt="http://ns.adobe.com/xap/1.0/sType/ResourceEvent#">
         <xmpMM:RenditionClass>proof:pdf</xmpMM:RenditionClass>
         <xmpMM:OriginalDocumentID>uuid:65E6390686CF11DBA6E2D887CEACB407</xmpMM:OriginalDocumentID>
         <xmpMM:DocumentID>xmp.did:9C941466B85CEA1180F1F3A9E4B95ADC</xmpMM:DocumentID>
         <xmpMM:InstanceID>xmp.iid:9C941466B85CEA1180F1F3A9E4B95ADC</xmpMM:InstanceID>
         <xmpMM:DerivedFrom rdf:parseType="Resource">
            <stRef:instanceID>xmp.iid:9B941466B85CEA1180F1F3A9E4B95ADC</stRef:instanceID>
            <stRef:documentID>xmp.did:9B941466B85CEA1180F1F3A9E4B95ADC</stRef:documentID>
            <stRef:originalDocumentID>uuid:65E6390686CF11DBA6E2D887CEACB407</stRef:originalDocumentID>
            <stRef:renditionClass>proof:pdf</stRef:renditionClass>
         </xmpMM:DerivedFrom>
         <xmpMM:History>
            <rdf:Seq>
               <rdf:li rdf:parseType="Resource">
                  <stEvt:action>saved</stEvt:action>
                  <stEvt:instanceID>xmp.iid:2bce728e-a48b-4169-bf91-0ea394687aed</stEvt:instanceID>
                  <stEvt:when>2019-05-22T22:24:43+07:00</stEvt:when>
                  <stEvt:softwareAgent>Adobe Illustrator CC 23.0 (Macintosh)</stEvt:softwareAgent>
                  <stEvt:changed>/</stEvt:changed>
               </rdf:li>
               <rdf:li rdf:parseType="Resource">
                  <stEvt:action>saved</stEvt:action>
                  <stEvt:instanceID>xmp.iid:9C941466B85CEA1180F1F3A9E4B95ADC</stEvt:instanceID>
                  <stEvt:when>2020-03-02T20:08:42+01:00</stEvt:when>
                  <stEvt:softwareAgent>Adobe Illustrator CS6 (Windows)</stEvt:softwareAgent>
                  <stEvt:changed>/</stEvt:changed>
               </rdf:li>
            </rdf:Seq>
         </xmpMM:History>
      </rdf:Description>
      <rdf:Description rdf:about=""
            xmlns:illustrator="http://ns.adobe.com/illustrator/1.0/">
         <illustrator:StartupProfile>Web</illustrator:StartupProfile>
      </rdf:Description>
      <rdf:Description rdf:about=""
            xmlns:xmpTPg="http://ns.adobe.com/xap/1.0/t/pg/"
            xmlns:stDim="http://ns.adobe.com/xap/1.0/sType/Dimensions#"
            xmlns:stFnt="http://ns.adobe.com/xap/1.0/sType/Font#"
            xmlns:xmpG="http://ns.adobe.com/xap/1.0/g/">
         <xmpTPg:NPages>1</xmpTPg:NPages>
         <xmpTPg:HasVisibleTransparency>True</xmpTPg:HasVisibleTransparency>
         <xmpTPg:HasVisibleOverprint>False</xmpTPg:HasVisibleOverprint>
         <xmpTPg:MaxPageSize rdf:parseType="Resource">
            <stDim:w>500.000000</stDim:w>
            <stDim:h>500.000000</stDim:h>
            <stDim:unit>Pixels</stDim:unit>
         </xmpTPg:MaxPageSize>
         <xmpTPg:Fonts>
            <rdf:Bag>
               <rdf:li rdf:parseType="Resource">
                  <stFnt:fontName>CenturyGothic-Bold</stFnt:fontName>
                  <stFnt:fontFamily>Century Gothic</stFnt:fontFamily>
                  <stFnt:fontFace>Bold</stFnt:fontFace>
                  <stFnt:fontType>Open Type</stFnt:fontType>
                  <stFnt:versionString>Version 2.35</stFnt:versionString>
                  <stFnt:composite>False</stFnt:composite>
                  <stFnt:fontFileName>GOTHICB.TTF</stFnt:fontFileName>
               </rdf:li>
               <rdf:li rdf:parseType="Resource">
                  <stFnt:fontName>CenturyGothic</stFnt:fontName>
                  <stFnt:fontFamily>Century Gothic</stFnt:fontFamily>
                  <stFnt:fontFace>Regular</stFnt:fontFace>
                  <stFnt:fontType>Open Type</stFnt:fontType>
                  <stFnt:versionString>Version 2.35</stFnt:versionString>
                  <stFnt:composite>False</stFnt:composite>
                  <stFnt:fontFileName>GOTHIC.TTF</stFnt:fontFileName>
               </rdf:li>
            </rdf:Bag>
         </xmpTPg:Fonts>
         <xmpTPg:PlateNames>
            <rdf:Seq>
               <rdf:li>Cyan</rdf:li>
               <rdf:li>Magenta</rdf:li>
               <rdf:li>Yellow</rdf:li>
               <rdf:li>Black</rdf:li>
            </rdf:Seq>
         </xmpTPg:PlateNames>
         <xmpTPg:SwatchGroups>
            <rdf:Seq>
               <rdf:li rdf:parseType="Resource">
                  <xmpG:groupName>Default Swatch Group</xmpG:groupName>
                  <xmpG:groupType>0</xmpG:groupType>
               </rdf:li>
            </rdf:Seq>
         </xmpTPg:SwatchGroups>
      </rdf:Description>
      <rdf:Description rdf:about=""
            xmlns:pdf="http://ns.adobe.com/pdf/1.3/">
         <pdf:Producer>Adobe PDF library 15.00</pdf:Producer>
      </rdf:Description>
      <rdf:Description rdf:about=""
            xmlns:pdfx="http://ns.adobe.com/pdfx/1.3/">
         <pdfx:CreatorVersion>21.0.0</pdfx:CreatorVersion>
      </rdf:Description>
   </rdf:RDF>
</x:xmpmeta>
                                                                                                    
                                                                                                    
                                                                                                    
                                                                                                    
                                                                                                    
                                                                                                    
                                                                                                    
                                                                                                    
                                                                                                    
                                                                                                    
                                                                                                    
                                                                                                    
                                                                                                    
                                                                                                    
                                                                                                    
                                                                                                    
                                                                                                    
                                                                                                    
                                                                                                    
                                                                                                    
                           
<?xpacket end="w"?>
	</metadata>
<g id="BACKGROUND" display="none">
	<rect display="inline" fill="#FFFFFF" width="500" height="500"/>
</g>
<g id="OBJECTS">
	<g>
		<g>
			<path fill="#B5DFEA" d="M453.058,393.556c6.952,0,12.625-5.573,12.731-12.524c0.532-34.645,3.323-85.746-61.922-99.879
				c-52.799-11.437-21.494-105.268-163.688-99.206c-102.073,4.352-74.956,90.387-154.32,97.552
				c-52.81,4.768-53.267,71.559-51.237,102.162c0.444,6.694,5.997,11.895,12.706,11.895H453.058z"/>
			<g>
				<path opacity="0.55" fill="#90CEDD" d="M403.867,281.152c-52.799-11.437-21.494-105.268-163.688-99.206
					c-24.277,1.035-41.237,6.696-54.069,14.813c4.323-0.566,8.911-0.965,13.801-1.173c142.194-6.063,110.89,87.769,163.688,99.205
					c64.55,13.982,62.506,64.148,61.94,98.765h27.518c6.952,0,12.625-5.573,12.731-12.524
					C466.321,346.387,469.112,295.285,403.867,281.152z"/>
			</g>
			<g>
				<rect x="177.771" fill="#79C9E8" width="2.245" height="163.799"/>
				<rect x="338.744" fill="#79C9E8" width="2.245" height="188.961"/>
				<g>
					<path fill="#D7F0F9" d="M340.773,177.946L173.827,158.46c-7.135-0.833-13.593,4.276-14.426,11.411l-12.46,106.754
						c-0.833,7.135,4.276,13.594,11.411,14.427l166.947,19.486c7.135,0.833,13.594-4.276,14.426-11.411l12.461-106.754
						C353.018,185.238,347.908,178.779,340.773,177.946z"/>
					<path fill="#0582C1" d="M350.951,202.939l1.233-10.567c0.833-7.134-4.276-13.594-11.411-14.426L173.827,158.46
						c-7.135-0.833-13.593,4.276-14.426,11.411l-1.233,10.567L350.951,202.939z"/>
					<g>
						<path fill="#79C9E8" d="M185.178,245.079l21.162-37.287c1.356-2.389,4.01-3.734,6.738-3.416l0,0
							c3.75,0.438,6.436,3.833,5.998,7.583l-4.402,37.716l0.188,0.022c2.599,0.303,4.459,2.655,4.156,5.254l0,0
							c-0.303,2.599-2.656,4.459-5.254,4.155l-0.188-0.021l-0.802,6.869c-0.328,2.806-2.868,4.815-5.674,4.487l0,0
							c-2.806-0.327-4.815-2.868-4.488-5.674l0.802-6.869l-15.235-1.777c-2.603-0.305-4.466-2.66-4.163-5.263l0.404-3.461
							C184.515,246.581,184.772,245.793,185.178,245.079z M204.584,247.868l2.73-23.39c0.019-0.162-0.199-0.233-0.279-0.091
							l-12.503,22.063c-0.221,0.39,0.027,0.878,0.472,0.93l8.886,1.037C204.233,248.457,204.544,248.211,204.584,247.868z"/>
						<path fill="#79C9E8" d="M278.574,255.98l21.162-37.287c1.356-2.389,4.01-3.734,6.738-3.416l0,0
							c3.75,0.438,6.436,3.833,5.998,7.583l-4.402,37.716l0.188,0.021c2.598,0.304,4.459,2.655,4.155,5.254l0,0
							c-0.303,2.599-2.655,4.459-5.254,4.155l-0.188-0.021l-0.802,6.869c-0.327,2.806-2.867,4.815-5.674,4.487l0,0
							c-2.806-0.327-4.815-2.868-4.487-5.674l0.802-6.868l-15.235-1.778c-2.604-0.305-4.467-2.66-4.163-5.264l0.404-3.461
							C277.911,257.482,278.169,256.694,278.574,255.98z M297.981,258.77l2.729-23.39c0.02-0.162-0.198-0.233-0.279-0.091
							l-12.503,22.063c-0.221,0.39,0.027,0.878,0.472,0.931l8.887,1.037C297.63,259.358,297.94,259.112,297.981,258.77z"/>
						<path fill="#79C9E8" d="M236.588,223.144c1.23-10.539,7.484-15.913,17.646-14.726c10.162,1.186,15.011,7.856,13.781,18.395
							l-3.998,34.249c-1.23,10.539-7.484,15.913-17.646,14.728c-10.163-1.187-15.011-7.856-13.781-18.396L236.588,223.144z
							 M242.864,259.261c-0.549,4.705,1.312,6.733,4.605,7.118s5.572-1.161,6.122-5.866l4.151-35.567
							c0.549-4.705-1.313-6.734-4.605-7.118c-3.293-0.385-5.572,1.162-6.122,5.866L242.864,259.261z"/>
					</g>
					<g>
						<circle fill="#FFFFFF" cx="174.376" cy="172.807" r="3.495"/>
						<circle fill="#79C9E8" cx="191.122" cy="174.762" r="3.495"/>
						<circle fill="#FFBF4D" cx="208.481" cy="176.788" r="3.495"/>
					</g>
				</g>
			</g>
			<g>
				<path fill="#00668E" d="M144.793,298.792c0,0-2.255,9.997-1.879,20.221c0.336,9.151-0.752,69.31-0.752,69.31h7.348
					c0,0,10.46-47.116,10.851-50.837c0.391-3.721,5.652-40.93,5.652-40.93L144.793,298.792z"/>
				<path fill="#0582C1" d="M149.679,296.048c0,0,1.691,12.854,4.567,21.987c2.875,9.133,17.007,70.287,17.007,70.287h7.348
					c0,0-1.353-47.116-1.86-50.837s-4.229-40.93-4.229-40.93L149.679,296.048z"/>
				<path fill="#0582C1" d="M171.853,388.311v5.128h13.988c0.794,0,1.105-1.029,0.443-1.47c-2.045-1.362-5.322-3.239-8.368-3.658
					H171.853z"/>
				<path fill="#0582C1" d="M142.537,388.311v5.128h13.988c0.794,0,1.105-1.029,0.444-1.47c-2.046-1.362-5.322-3.239-8.368-3.658
					H142.537z"/>
				<g>
					<path fill="#00668E" d="M167.774,236.255c0,0,4.811-7.305-0.713-8.018c-4.241-0.547-5.986,0.716-5.986,0.716
						s-4.883-0.538-7.556,1.778c-1.832,1.587-8.553,13.898,2.316,18.353c10.869,4.454,8.552-6.949,8.552-6.949L167.774,236.255z"/>
					<path fill="#05556D" d="M167.062,228.237c-4.241-0.547-5.986,0.716-5.986,0.716s-4.883-0.538-7.556,1.778
						c-1.832,1.587-8.553,13.898,2.316,18.353c5.109,2.094,7.304,0.683,8.196-1.399c-10.313,2.9-11.431-9.527-9.73-13.064
						c1.728-3.594,5.875-1.935,5.875-1.935c1.622-4.082,6.907-3.64,9.085-3.322C168.865,228.796,168.177,228.381,167.062,228.237z"
						/>
					<path fill="#F98D3D" d="M161.003,239.818c0,0-1.425-1.425-2.495,0c-1.069,1.426-0.356,4.633,1.426,4.811
						c0,0-0.535,4.633-4.098,4.455v3.741h8.375v-2.851c0,0,5.167-2.138,4.989-6.415c-0.178-4.276-1.425-7.305-1.425-7.305
						S164.923,239.462,161.003,239.818z"/>
					<path fill="#ED701B" d="M162.285,251.173c0.829,0.346,0.684,0.868,0.721,1.652h1.205v-2.851c0,0-2.029,0.645-5.001-1.048
						C159.209,248.926,160.939,250.612,162.285,251.173z"/>
				</g>
				<path fill="#F98D3D" d="M163.999,232.999c0,0-4.341-1.729-4.848-0.432c-0.333,0.849,0.512,1.58,1.671,2.319l-1.021,0.168
					c-0.227,0.037-0.31,0.328-0.13,0.472c0.285,0.23,1.072,0.385,2.713,0.442L163.999,232.999z"/>
				<g>
					<polygon fill="none" points="138.178,280.074 143.995,298.816 143.891,297.871 143.995,298.816 145.958,271.523 					"/>
					<path fill="#FFBF4D" d="M194.995,243.871c-8.277-6.134-30.884-11.038-30.884-11.038l-1.863,3.395
						c0,0,20.523,7.953,19.168,9.139c-0.795,0.7-10.825,5.294-14.22,6.841c-0.729,0.331-1.524,0.493-2.334,0.479l-10.391-0.059
						c0,0-7.496-0.892-13.395,5.884c-5.272,6.067-14.234,20.117-14.234,20.117l15.096,22.202l1.672,2.452l0.015-0.029l-0.015,0.206
						c0,0,0.538,0.059,1.487,0.147c4.853,0.449,20.405,1.679,28.638-0.066l0.229-0.052l-0.39-36.421
						c13.144-10.405,19.418-18.439,21.664-20.965C195.827,245.433,195.717,244.409,194.995,243.871z M144.34,293.54l-1.473-3.218
						l-4.69-10.251l7.783-8.718l-1.399,19.131L144.34,293.54z"/>
				</g>
				<polygon fill="#EFAA3A" points="142.867,290.322 144.34,293.54 143.625,303.253 143.611,303.282 141.939,300.83 				"/>
				<path opacity="0.29" fill="#F98D2B"  a:adobe-blending-mode="multiply" d="M170.063,265.758
					c-1.398,1.016-1.044,10.023-1.39,15.655c-0.578,9.431-1.141,17.592-0.726,22.854c2.13-0.141,4.113-0.371,5.789-0.727
					l0.229-0.052l-0.39-36.421c13.144-10.405,19.418-18.439,21.664-20.965c0.589-0.67,0.479-1.694-0.243-2.231
					C194.995,243.871,184.605,255.198,170.063,265.758z"/>
				<path fill="#00668E" d="M176.741,337.485c-0.366-2.685-2.405-22.804-3.513-33.801l-5.281,0.582c0,0,7.704,63.332,8.21,84.056
					h2.444C178.601,388.322,177.248,341.206,176.741,337.485z"/>
				<g>
					<path fill="#0582C1" d="M142.881,240.857l-1.592-2.855c0.798-1.505,1.254-3.219,1.254-5.041
						c0-5.955-4.827-10.782-10.781-10.782s-10.781,4.827-10.781,10.782c0,5.954,4.827,10.781,10.781,10.781
						c2.998,0,5.708-1.225,7.662-3.2L142.881,240.857z"/>
					<g>
						<path fill="#FFFFFF" d="M126.154,231.988h0.42v1.503c0,0.46,0.137,0.658,0.46,0.658c0.253,0,0.43-0.126,0.663-0.415v-1.746
							h0.415v2.459h-0.344l-0.036-0.384h-0.015c-0.228,0.268-0.47,0.445-0.81,0.445c-0.521,0-0.754-0.334-0.754-0.961V231.988z"/>
						<path fill="#FFFFFF" d="M129.862,234.654v0.83h-0.416v-3.496h0.345l0.035,0.283h0.015c0.223-0.187,0.496-0.344,0.785-0.344
							c0.632,0,0.971,0.491,0.971,1.255c0,0.835-0.501,1.326-1.063,1.326c-0.228,0-0.455-0.106-0.684-0.284L129.862,234.654z
							 M130.464,234.159c0.405,0,0.704-0.369,0.704-0.977c0-0.542-0.183-0.906-0.647-0.906c-0.208,0-0.416,0.116-0.658,0.333v1.291
							C130.084,234.087,130.302,234.159,130.464,234.159z"/>
						<path fill="#FFFFFF" d="M132.694,233.89c0.212,0.172,0.43,0.294,0.724,0.294c0.324,0,0.486-0.172,0.486-0.385
							c0-0.253-0.293-0.364-0.562-0.465c-0.349-0.126-0.733-0.294-0.733-0.708c0-0.395,0.314-0.698,0.845-0.698
							c0.309,0,0.577,0.126,0.764,0.278l-0.198,0.263c-0.167-0.126-0.344-0.217-0.562-0.217c-0.309,0-0.45,0.167-0.45,0.354
							c0,0.228,0.268,0.319,0.546,0.425c0.354,0.131,0.749,0.278,0.749,0.744c0,0.399-0.319,0.733-0.901,0.733
							c-0.349,0-0.683-0.146-0.916-0.339L132.694,233.89z"/>
						<path fill="#FFFFFF" d="M135.603,233.871c0.162,0,0.298,0.131,0.298,0.324c0,0.182-0.137,0.313-0.298,0.313
							c-0.167,0-0.304-0.132-0.304-0.313C135.299,234.002,135.436,233.871,135.603,233.871z"/>
						<path fill="#FFFFFF" d="M137.368,233.871c0.162,0,0.298,0.131,0.298,0.324c0,0.182-0.137,0.313-0.298,0.313
							c-0.167,0-0.304-0.132-0.304-0.313C137.064,234.002,137.201,233.871,137.368,233.871z"/>
					</g>
				</g>
			</g>
			<g>
				<g>
					<g>
						<path fill="#79C9E8" d="M101.545,370.494c0,0-2.265-2.115-0.745-10.139c1.52-8.024,5.376-15.73,3.484-24.436
							S87.56,305.266,87.51,303.806s-4.576,25.535,3.095,36.169s8.594,14.323,8.253,19.915c-0.341,5.593,0.079,10.096,0.92,11.396
							L101.545,370.494z"/>
						<path fill="#49B4D6" d="M100.141,354.355c-0.892,3.58-1.43,12.555-0.005,14.703c0.133,0.201,0.324,0.087,0.563-0.284
							c-0.435-1.483-0.72-4.084,0.102-8.419c1.52-8.024,5.376-15.73,3.484-24.436S87.56,305.266,87.51,303.806
							c0,0,2.235,18.288,9.763,30.875C102.662,343.692,101.033,350.776,100.141,354.355z"/>
					</g>
					<g>
						<path fill="#79C9E8" d="M104.25,369.938c0,0-4.357-10.88,3.028-20.301c7.385-9.42,19.196-21.516,19.432-26.308
							c0,0,3.035,22.751-6.578,29.191c-9.613,6.439-16.354,7.468-14.688,17.376L104.25,369.938z"/>
						<path fill="#49B4D6" d="M114.625,347.946c-10.719,7.802-11.595,16.789-9.932,20.957c0.129,0.324,0.374,0.522,0.697,0.628
							c-1.437-9.564,5.25-10.652,14.741-17.011c9.613-6.44,6.578-29.191,6.578-29.191S125.344,340.145,114.625,347.946z"/>
					</g>
					<g>
						<path fill="#79C9E8" d="M97.083,370.182c0,0,1.398-5.762,0.654-11.98c-0.744-6.22-7.241-9.719-13.312-16.288
							c-3.123-3.38-4.047-21.255-2.111-22.915c0,0-10.718,12.988-9.064,22.499s19.138,15.69,20.756,20.286
							c1.619,4.595,1.485,8.453,1.485,8.453L97.083,370.182z"/>
						<g>
							<path fill="#49B4D6" d="M78.692,324.11c-3.542,9.593,0.089,21.211,11.856,28.427c8.663,5.313,5.904,16.36,5.904,16.36
								l1.415-4.358c0.125-1.885,0.139-4.079-0.131-6.338c-0.744-6.22-7.241-9.719-13.312-16.288
								c-3.012-3.26-3.978-19.998-2.305-22.673C81.629,319.858,80.242,321.655,78.692,324.11z"/>
							<path fill="#49B4D6" d="M82.12,319.24c0.122-0.153,0.194-0.242,0.194-0.242C82.246,319.057,82.182,319.142,82.12,319.24z"/>
						</g>
					</g>
					<g>
						<path fill="#79C9E8" d="M106.493,369.462c0,0,2.512-9.32,8.725-10.575c6.213-1.255,13.347-10.436,13.733-12.236
							C128.951,346.65,127.903,363.965,106.493,369.462z"/>
						<path fill="#49B4D6" d="M114.863,361.968c-3.807,1.903-5.39,4.464-5.952,6.788c19.062-6.13,20.04-22.105,20.04-22.105
							c-0.076,0.356-0.424,1.007-0.969,1.821C126.113,351.747,121.587,358.605,114.863,361.968z"/>
					</g>
				</g>
				<path fill="#FFBF4D" d="M119.938,366.029H87.442l3.859,24.271c0.293,1.841,1.88,3.196,3.744,3.196h17.289
					c1.864,0,3.451-1.355,3.744-3.196L119.938,366.029z"/>
				<polygon fill="#FF9F50" points="119.299,370.045 119.938,366.029 87.442,366.029 88.081,370.045 				"/>
				<path fill="#FF9F50" d="M112.065,366.029l-3.859,24.271c-0.293,1.841-1.88,3.195-3.744,3.195h7.873
					c1.864,0,3.451-1.354,3.744-3.195l3.859-24.271H112.065z"/>
			</g>
			<g>
				<rect x="197.202" y="322.747" fill="#FFBF4D" width="146.863" height="29.86"/>
				
					<rect x="197.202" y="322.747" opacity="0.29" fill="#F98D2B"  a:adobe-blending-mode="multiply" width="146.863" height="7.248"/>
				<polygon fill="#F77E2D" points="209.972,322.747 223.376,322.747 219.783,329.998 206.372,329.998 				"/>
				<polygon fill="#F77E2D" points="240.171,322.747 253.575,322.747 249.982,329.998 236.578,329.998 				"/>
				<polygon fill="#F77E2D" points="270.37,322.747 283.774,322.747 280.182,329.998 266.777,329.998 				"/>
				<polygon fill="#F77E2D" points="300.569,322.747 313.967,322.747 310.374,329.998 296.977,329.998 				"/>
				<polygon fill="#F77E2D" points="344.065,322.747 344.065,322.949 340.566,329.998 327.177,329.998 330.77,322.747 				"/>
				<rect x="215.484" y="352.61" fill="#79C9E8" width="10.353" height="40.828"/>
				<rect x="223.485" y="352.61" fill="#49B4D6" width="2.352" height="40.828"/>
				<rect x="316.235" y="352.61" fill="#79C9E8" width="10.353" height="40.828"/>
				<rect x="323.527" y="352.61" fill="#49B4D6" width="3.061" height="40.828"/>
				<rect x="215.484" y="352.578" fill="#49B4D6" width="10.353" height="5.142"/>
				<rect x="316.235" y="352.578" fill="#49B4D6" width="10.353" height="5.142"/>
				<rect x="215.484" y="318.082" fill="#79C9E8" width="10.353" height="4.636"/>
				<rect x="223.485" y="318.082" fill="#49B4D6" width="2.352" height="4.636"/>
				<rect x="316.235" y="318.082" fill="#79C9E8" width="10.353" height="4.636"/>
				<rect x="323.527" y="318.082" fill="#49B4D6" width="3.061" height="4.636"/>
				<rect x="215.484" y="322.138" fill="#49B4D6" width="10.353" height="0.584"/>
				<rect x="316.235" y="322.138" fill="#49B4D6" width="10.353" height="0.584"/>
				<g>
					<g  a:adobe-knockout="true">
						<polygon fill="#0582C1"  a:adobe-knockout="false" points="223.376,322.747 208.565,352.607 197.202,352.607 197.202,348.488 
							209.972,322.747 						"/>
						<polygon fill="#0582C1"  a:adobe-knockout="false" points="240.171,322.747 225.36,352.607 238.764,352.607 253.575,322.747 
													"/>
						<polygon fill="#0582C1"  a:adobe-knockout="false" points="283.774,322.747 268.964,352.607 255.56,352.607 270.37,322.747 
													"/>
						<polygon fill="#0582C1"  a:adobe-knockout="false" points="313.967,322.747 299.163,352.607 285.759,352.607 300.569,322.747 
													"/>
						<polygon fill="#0582C1"  a:adobe-knockout="false" points="330.77,322.747 315.958,352.607 329.355,352.607 344.065,322.949 
													"/>
					</g>
				</g>
				<g>
					<g  a:adobe-knockout="true">
						<polygon fill="#00668E"  a:adobe-knockout="false" points="223.376,322.747 219.783,329.998 206.372,329.998 209.972,322.747 
													"/>
						<polygon fill="#00668E"  a:adobe-knockout="false" points="253.575,322.747 249.982,329.998 236.578,329.998 240.171,322.747 
													"/>
						<polygon fill="#00668E"  a:adobe-knockout="false" points="283.774,322.747 280.182,329.998 266.777,329.998 270.37,322.747 
													"/>
						<polygon fill="#00668E"  a:adobe-knockout="false" points="313.967,322.747 310.374,329.998 296.977,329.998 300.569,322.747 
													"/>
						<polygon fill="#00668E"  a:adobe-knockout="false" points="344.065,322.949 340.566,329.998 327.177,329.998 330.77,322.747 
													"/>
					</g>
				</g>
				<linearGradient id="SVGID_1_" gradientUnits="userSpaceOnUse" x1="271.4141" y1="361.3418" x2="271.4141" y2="337.2881">
					<stop  offset="0" style="stop-color:#FFFFFF"/>
					<stop  offset="1" style="stop-color:#FFFFFF;stop-opacity:0"/>
					<a:midPointStop  offset="0" style="stop-color:#FFFFFF"/>
					<a:midPointStop  offset="0.3624" style="stop-color:#FFFFFF"/>
					<a:midPointStop  offset="1" style="stop-color:#FFFFFF;stop-opacity:0"/>
				</linearGradient>
				
					<rect x="201.295" y="335.666" opacity="0.55" fill="url(#SVGID_1_)"  a:adobe-blending-mode="overlay" width="140.239" height="14.936"/>
				<circle fill="#FFBF4D" cx="220.39" cy="311.602" r="9.231"/>
				<circle fill="#0582C1" cx="220.39" cy="311.602" r="4.183"/>
				<circle fill="#FFBF4D" cx="321.351" cy="311.602" r="9.23"/>
				<circle fill="#0582C1" cx="321.351" cy="311.602" r="4.183"/>
			</g>
			<g>
				<path fill="#FFBF4D" d="M399.705,390.274h-46.773l7.154-17.343v-0.01l2.878-6.998l0.793-1.919l1.292-3.122l0.264-0.636
					l2.878-6.998l0.528-1.272l5.1-12.381c0.92-2.231,4.081-2.231,5.001,0l5.099,12.381l0.529,1.272l2.877,6.998l0.265,0.636
					l1.292,3.122l0.792,1.919l2.878,6.998v0.01L399.705,390.274z"/>
				<polygon opacity="0.29" fill="#F98D2B"  a:adobe-blending-mode="multiply" points="355.998,382.838 352.934,390.273 
					399.71,390.273 396.646,382.838 				"/>
				<rect x="349.194" y="385.828" fill="#79C9E8" width="53.571" height="7.573"/>
				<rect x="391.191" y="385.828" fill="#49B4D6" width="11.574" height="7.573"/>
				<g>
					<path opacity="0.29" fill="#F98D2B"  a:adobe-blending-mode="multiply" d="M397.865,385.825h-6.616l-5.314-12.89v-0.01
						l-2.878-6.998l-0.792-1.918l-1.292-3.122l-0.265-0.637l-2.877-6.998l-0.529-1.272l-4.286-10.423l0.803-1.958
						c0.92-2.231,4.081-2.231,5.001,0l5.099,12.381l0.529,1.272l2.877,6.998l0.265,0.637l1.292,3.122l0.792,1.918l2.878,6.998v0.01
						L397.865,385.825z"/>
					<g>
						<polygon fill="#0582C1" points="387.324,360.247 365.313,360.247 368.19,353.249 384.447,353.249 						"/>
						<polygon fill="#0582C1" points="392.551,372.922 392.551,372.932 360.086,372.932 360.086,372.922 362.964,365.924 
							389.673,365.924 						"/>
						<polygon fill="#00668E" points="387.324,360.247 380.708,360.247 377.831,353.249 384.447,353.249 						"/>
						<polygon fill="#00668E" points="392.551,372.922 392.551,372.932 385.935,372.932 385.935,372.922 383.057,365.924 
							389.673,365.924 						"/>
					</g>
				</g>
			</g>
			<g>
				<path fill="#D7F0F9" d="M101.558,220.208c3.495,0,6.533-2.538,7.005-6c0.084-0.621,0.128-1.255,0.128-1.899
					c0-7.709-6.25-13.958-13.958-13.958c-0.316,0-0.629,0.014-0.94,0.035c-0.637-7.602-7.005-13.574-14.772-13.574
					c-8.19,0-14.829,6.639-14.829,14.829c0,0.363,0.018,0.722,0.043,1.079c-2.324-1.298-5.032-1.993-7.913-1.86
					c-7.448,0.341-13.568,6.299-14.096,13.736c-0.004,0.059-0.008,0.118-0.011,0.177c-0.24,4.044,3.03,7.437,7.082,7.437H101.558z"
					/>
				<path fill="#D7F0F9" d="M434.692,231.172c11.038,0,11.649-16.612,0.624-17.147c-0.301-0.015-0.604-0.022-0.909-0.022
					c-1.968,0-3.862,0.312-5.641,0.883c-1.476-8.992-9.278-15.853-18.688-15.853c-9.616,0-17.553,7.167-18.773,16.451
					c-2.282-1.094-4.838-1.707-7.537-1.707c-1.508,0-2.971,0.191-4.366,0.55c-9.652,2.486-7.626,16.846,2.34,16.846H434.692z"/>
				<path fill="#D7F0F9" d="M302.135,149.323c11.035,0,11.646-16.607,0.624-17.143c-0.301-0.015-0.604-0.022-0.908-0.022
					c-1.968,0-3.861,0.312-5.64,0.883c-1.475-8.989-9.275-15.849-18.682-15.849c-9.613,0-17.548,7.166-18.769,16.446
					c-2.28-1.093-4.836-1.707-7.534-1.707c-1.507,0-2.97,0.191-4.365,0.551c-9.649,2.484-7.624,16.84,2.34,16.84H302.135z"/>
				<circle fill="#FFBF4D" cx="126.446" cy="153.563" r="26.455"/>
				<path fill="#FF9F50" d="M126.664,127.113c7.195,4.728,11.949,12.867,11.949,22.12c0,14.61-11.844,26.455-26.455,26.455
					c-0.073,0-0.145-0.005-0.217-0.005c4.166,2.738,9.148,4.335,14.506,4.335c14.611,0,26.455-11.844,26.455-26.455
					C152.901,139.025,141.173,127.231,126.664,127.113z"/>
			</g>
		</g>
	</g>
</g>
<g id="DESIGNED_BY_FREEPIK">
	
		<text transform="matrix(1 0 0 1 105.4297 437.707)" opacity="0.6" fill="#3B0466" font-family="'CenturyGothic-Bold'" font-size="47.07">Network Error</text>
	
		<text transform="matrix(1 0 0 1 179.9663 484.4961)" opacity="0.55" fill="#90CEDD" font-family="'CenturyGothic'" font-size="40.2386">Hit to retry</text>
	<g>
		<path fill="#90CEDD" d="M151.042,446.457c-8.512,0-15.915,4.543-19.706,11.543h5.501c3.319-4,8.33-6.358,13.937-6.358
			c9.992,0,18.093,8.199,18.093,18.191c0,9.993-8.101,18.347-18.093,18.347c-6.856,0-12.82-4.18-15.89-9.18h-4.113
			c3.582,7,11.311,12.66,20.271,12.66c12.372,0,22.4-10.23,22.4-22.602C173.442,456.687,163.414,446.457,151.042,446.457z"/>
		<polygon fill="#90CEDD" points="132.026,451.854 142.028,459.164 129.788,465.571 		"/>
	</g>
</g>
</svg>
