<?xml version="1.0" encoding="utf-8"?>
<!-- Generator: Adobe Illustrator 16.0.0, SVG Export Plug-In . SVG Version: 6.00 Build 0)  -->
<!DOCTYPE svg PUBLIC "-//W3C//DTD SVG 1.0//EN" "http://www.w3.org/TR/2001/REC-SVG-20010904/DTD/svg10.dtd" [
	<!ENTITY ns_flows "http://ns.adobe.com/Flows/1.0/">
	<!ENTITY ns_extend "http://ns.adobe.com/Extensibility/1.0/">
	<!ENTITY ns_ai "http://ns.adobe.com/AdobeIllustrator/10.0/">
	<!ENTITY ns_graphs "http://ns.adobe.com/Graphs/1.0/">
]>
<svg version="1.0" xmlns:x="&ns_extend;" xmlns:i="&ns_ai;" xmlns:graph="&ns_graphs;"
	 xmlns="http://www.w3.org/2000/svg" xmlns:xlink="http://www.w3.org/1999/xlink" xmlns:a="http://ns.adobe.com/AdobeSVGViewerExtensions/3.0/"
	 x="0px" y="0px" width="39.841px" height="40.349px" viewBox="0 0 39.841 40.349" enable-background="new 0 0 39.841 40.349"
	 xml:space="preserve">
<metadata><?xpacket begin="﻿" id="W5M0MpCehiHzreSzNTczkc9d"?>
<x:xmpmeta xmlns:x="adobe:ns:meta/" x:xmptk="Adobe XMP Core 5.3-c011 66.145661, 2012/02/06-14:56:27        ">
   <rdf:RDF xmlns:rdf="http://www.w3.org/1999/02/22-rdf-syntax-ns#">
      <rdf:Description rdf:about=""
            xmlns:dc="http://purl.org/dc/elements/1.1/">
         <dc:format>image/svg+xml</dc:format>
         <dc:title>
            <rdf:Alt>
               <rdf:li xml:lang="x-default">FP-0116</rdf:li>
            </rdf:Alt>
         </dc:title>
      </rdf:Description>
      <rdf:Description rdf:about=""
            xmlns:xmp="http://ns.adobe.com/xap/1.0/"
            xmlns:xmpGImg="http://ns.adobe.com/xap/1.0/g/img/">
         <xmp:MetadataDate>2020-03-09T20:10:03+01:00</xmp:MetadataDate>
         <xmp:ModifyDate>2020-03-09T20:10:03+01:00</xmp:ModifyDate>
         <xmp:CreateDate>2020-03-09T20:10:03+01:00</xmp:CreateDate>
         <xmp:CreatorTool>Adobe Illustrator CS6 (Windows)</xmp:CreatorTool>
         <xmp:Thumbnails>
            <rdf:Alt>
               <rdf:li rdf:parseType="Resource">
                  <xmpGImg:width>232</xmpGImg:width>
                  <xmpGImg:height>256</xmpGImg:height>
                  <xmpGImg:format>JPEG</xmpGImg:format>
                  <xmpGImg:image>/9j/4AAQSkZJRgABAgEASABIAAD/7QAsUGhvdG9zaG9wIDMuMAA4QklNA+0AAAAAABAASAAAAAEA&#xA;AQBIAAAAAQAB/+4ADkFkb2JlAGTAAAAAAf/bAIQABgQEBAUEBgUFBgkGBQYJCwgGBggLDAoKCwoK&#xA;DBAMDAwMDAwQDA4PEA8ODBMTFBQTExwbGxscHx8fHx8fHx8fHwEHBwcNDA0YEBAYGhURFRofHx8f&#xA;Hx8fHx8fHx8fHx8fHx8fHx8fHx8fHx8fHx8fHx8fHx8fHx8fHx8fHx8fHx8f/8AAEQgBAADoAwER&#xA;AAIRAQMRAf/EAaIAAAAHAQEBAQEAAAAAAAAAAAQFAwIGAQAHCAkKCwEAAgIDAQEBAQEAAAAAAAAA&#xA;AQACAwQFBgcICQoLEAACAQMDAgQCBgcDBAIGAnMBAgMRBAAFIRIxQVEGE2EicYEUMpGhBxWxQiPB&#xA;UtHhMxZi8CRygvElQzRTkqKyY3PCNUQnk6OzNhdUZHTD0uIIJoMJChgZhJRFRqS0VtNVKBry4/PE&#xA;1OT0ZXWFlaW1xdXl9WZ2hpamtsbW5vY3R1dnd4eXp7fH1+f3OEhYaHiImKi4yNjo+Ck5SVlpeYmZ&#xA;qbnJ2en5KjpKWmp6ipqqusra6voRAAICAQIDBQUEBQYECAMDbQEAAhEDBCESMUEFURNhIgZxgZEy&#xA;obHwFMHR4SNCFVJicvEzJDRDghaSUyWiY7LCB3PSNeJEgxdUkwgJChgZJjZFGidkdFU38qOzwygp&#xA;0+PzhJSktMTU5PRldYWVpbXF1eX1RlZmdoaWprbG1ub2R1dnd4eXp7fH1+f3OEhYaHiImKi4yNjo&#xA;+DlJWWl5iZmpucnZ6fkqOkpaanqKmqq6ytrq+v/aAAwDAQACEQMRAD8A9U4q7FXYq7FXYq7FXYq7&#xA;FUp1HzZ5c052jur+JZUbg8MdZZFP+UkYdl+kYqx+6/NCzBAsdPlnPIhjM6wig6MvH1Sa+4GGlSqf&#xA;z35muVZI2gtATVHhjLOB4Eyl1P8AwONItDvqeuXbK0+pXJYf76kMAPzWHgMaVcbGG6k9S6BuJD1e&#xA;UlyfpYnFUfbabZoAFgQAdBxFMVV302zZxW3jO3dF/piqvBpNiPswKvuop+rFUwhsFX+7lmjP+RNI&#xA;Pw5UwJRsUF8v93ey/Jwjj8Vr+OKopDqy9TDMB4hoz+HMYqu+vum09u6f5S0cfhv+GKq0V3bS7JIC&#xA;f5eh+474qq4q7FXYq7FXYq7FXYq7FXYq7FXYq7FXYqgdW13SNIi9XUbpLcEVRWNXYAgHhGtXald+&#xA;IxVg+r/m4gZo9Hs+dNvrF19mobtGhqQR0JcH2wqxDUvMmv6vyW+vJJIXBVrdTwiK15UaNOKtTxYE&#xA;4oQ0MQAAAoMKo6KPpiqZ2Vhc3DUgheU/5Clv1YquutQ0XTKjU9UsbBl6pcXUMb/LgW5/hkhAnkGJ&#xA;kAlsv5qflrani+vRSsP2YIbmX/hlj4fjkhhn3MfFj3qI/PL8vkICSXk1e6W4FP8AgnXJfl5I8aKF&#xA;vv8AnIz8vLScRyR35biG2gSlDX/izCNNJBzxVLT/AJyX/LN6eo95BWtfUgJpT/UL4nTTT48U/wBO&#xA;/P8A/Ke6YKutLExp/fRSxAfMyKoyBwTHRkMse9mGj/mB5G1QhdP1yzuWP7McyMd/kcrMCOYZCQLI&#xA;lu7aRKwypIPFGDD8MiyQ80uKoGdweu+KqSapcQH4W5L/ACnfFUbb+YrRyFm/dN4npiqaRyRyKHjY&#xA;Mp6EGoxVdirsVdirsVdirsVdirsVSvXfM+iaHD6mo3KxuwrHAvxSv1+yg3pUU5Gi+JxV5n5g/NvV&#xA;b0tDpCfUbbceqaPOw3HU1VKg9FqQejYVYY8txcStNcSNLLIavI7FmY9KsxqSfnihERR4qjZIo7O0&#xA;+u6hNFYWX/LVdyLBGafys5XkfZanJCJPJBNMU1b85vy+0otHaPc67cLXa1T6tb1Hb15xz+kQnL46&#xA;aR57NUswDDtU/wCcg/NUxKaNY2WkRfsyen9bn+l7jnH/AMDGMvjpojnu1HOejENX89edNcBXVtbv&#xA;LuI/7oeZ/RHyiBEY+gZcMcRyDUZkpZEuSY2joE3GBbTG3TpgKbSbzEn+nr/xjX9ZyUeTGRSvhkqR&#xA;bRTFbWlcCbTfS/OHmvSmU6dq13bBd1RZX4f8ASV/DISxxPMMhkI6s70P/nJH8yNOIW7ni1OIdROn&#xA;F6ezJQD/AIHKZaWJ5bNwzl6LoP8AzlJ5evCset2MunuftSx/vYh93x/8LlEtLIct22OcHm9E0fzz&#xA;5X1+H1dK1KG5G3JFcclr2ZeoOY8oEc20SB5I6aXIslCPU7u0fnbzNEe/E7H5jocVTix8+shCX8XI&#xA;f79j6/Sp/hirJ7DV9Ov052s6yeIB3HzB3GKozFXYq7FXYqh7/ULLT7V7q9nS3t4/tSOaD2A8SewG&#xA;5xV5Z5q/OGeVntfL6elGKg3sgBdqH9hTUKNu9Tv+ycVedyTXN1M01xI0ssh5PI5LMx8WJqSfc4UK&#xA;8MJJAAqTsAMVWa3r3lry0hOv36204AZdOiHrXrA7j9yCPTr2MrKMshilLkxlMB53rn56avNyg8r6&#xA;fHpkW4+vXAW5uyPEch6MX0ISP5szMek793HnqHnmr6hrGp3JvtWvZr67c0aa4kaV/wDgmJ29syzi&#xA;4Q4/icRQSrkVtWRcUWiI0w0i0ZFHgpFo6CPfGltMrePpgpNpP5hj/wBOX/jGv6zkojZhIpX6eSpF&#xA;rTHjS2tMeCk2sKY0ytYUwJtYVwJtfatcRTrJbytBMm6SISrA+xFCMIhxbJMq3Z35d/Ojz1ofCK5l&#xA;GqWa7GOf7dPaQCv0sDlGTRj3NsNQ9T8t/nb5T1vjDcyHTbxtvTuKBCf8mT7P3mvtmFPTyj5uVHKC&#xA;zBrhJF5IwZT0INRlDNZFczwSiWGRo5B0ZSQfwxVlei/mLcwlYtSX1Y+nrLsw+Y/pilnWnarYajCJ&#xA;bSZZFPYHcfMYqi8Vdirwb82r69n843Vq8ztbWwjWGIk8U5wxu3EduRO/jhViUUeKF+qajougWa3u&#xA;vXi2MLjlBBTnczAf75hBDEf5TUX3ycMZlyQZAPNPMX5ya9fh7Ty1CdEsTVTdBuV7IvT4pwB6dfCI&#xA;D3Y5n4dH8XFyZ2CrbBnMkrGWVyWdmNSSdyTXrmwjhAcSWUolUFPbLWq1K6Hwr88oy8meMqSJlLMl&#xA;XRMNMbRUUeGkWjIo8aRaOgj3GCltMrePpgpNpR5gi/05f+Ma/rOTiNmEjulhiyVMeJaYsFJtYYsa&#xA;Tam0eCmQKk0eCmQKkyZFkC3Av70fTk8fNEzsiSuZLUoS20b9RQ+IyMsYLOMyE38v+dvNnltlFjdG&#xA;azX/AI9JqvHTwAJqv+xOYebSAuVjzvWvKn5w+XtaKW16f0dftQenKR6bMf5JNh99DmtyYJR83Ljk&#xA;BZxzDCoNQehGUM1ax1G9s7hZLSVo5KilDsfmMKvcbF5Hs4HkNXaNWY+5FcCVbFXif5wWUUXmxZEB&#xA;5XNvHNIT05VaIU/2MQwqxrQljTVrJpFDRiaPmrCopyFeuKHzbqo1C413UG1a4lvNQineO4mnYs7M&#xA;jFTUnf8AZ6ZvdNjiQ6/NMhyrQZmOMSqKuRYqgGBiSp3K7L9OVZWcFkaZVTIlExx4aYkouKPphpja&#xA;MiixpjaPgixpbTG3i6ZEhNpVr0X+mr/xjH6zlkBs1zlulhhyVMeJaYsFJ4lNosFMgVJosFMgVF48&#xA;FMwU48oeStX816uun6enFRRrq6YH04Y/5mP6h3ynLkEBZbsUDI0EL5i8q6t5a1x9M1KPhKlTHIu8&#xA;cqGtHQ91P4dDvk8ExKiEZYmOxQJXMtoWMuEJU2GFkEJdQRlGelGHcZVlgCLbscjdPafyTm1CXyvM&#xA;91PJMi3DJbB2LcY1VdhXtyrmj1IHFs7HHyek6dGZtQt4wK8pF29ganKGb3mJBHEkY6IoX7hTAldi&#xA;rzL85rIsdLu1j2/exSy79uLRr+LnCFedQKVYMNiDUH3GKHh/5mWAsfzL8wRBeKXFwb2MDYcbtVuV&#xA;p9E2brRS2+Dr9QN0hUZnOIVQDAxKqq4EEtXCfCvzyvImBWxplYDIlFRx4aYEoyKLDTAlHQxYaY2j&#xA;4IsFLxJjbxdMFJtKtdh/01f9QfrOTgNmuct0uMOTphxLGhwUy4lJosFMhJReLBTIFNPKnk3VfM+q&#xA;rYWK8VFGublgfThjr9pvfwHfKcuQQFlyMOMzNB7nZxaP5V05NA0FaU3vLw05ySdCWYftfq6DNNky&#xA;GZsu4x4xAUFLzNoNh5q0cW1+v+kRVa2uwKvGxFKjxB/aHfJYcpxysIy4hMUXgOv6BqGiahJY3qcZ&#xA;F3Rx9h17Mh7g5vcWUTFh1E4GBopURljFTYYWSEvdoT7kD+OV5j6W3Hze9/lfY/UvJOnKRRplM5Pj&#xA;6rFx+BGaHMbmXaYxs9F8k2v1nzLaLSoRubfIdcqZPasCXYqxL80bJbjyo8xJBs5oplUCvIsfRofk&#xA;Ja/RiryOKPCh5X+fGnmLzHouqqKJf6esMjeMtrI0RH/Ir0s2Whk4eqDz5Rm1deqqMDFXRcWBLc6f&#xA;APnkcnJYHdqKPKwGRKMijyVNZKNhiw0wJR0MWGmNphBF0wUvEmMEXTAQniSzW4f9MH+oP1nLIDZq&#xA;yS3S4w5KmHEsaHGmQkovFkaZCSY+WvKWpeY9TWyslooo1xcMPgiT+Zv4DvlObKMYsuTgxSySoPY4&#xA;odM8s6UNE0NeNN7u7/3Y70oSSP2v1dBmjyZDM2XfYsQgKCTE8XB98rbGRaRN0xVDedvJNlrmlNzT&#xA;ZKtHKoq8LH9oeKn9of5i3DmOM2GvLiExRfPGuaJfaPfvZ3icXXdHH2XXsynuDm9xZRMWHUTxmJop&#xA;YRliAhZoZLieG2jFZJXCIPFmIUZRnk34Q+mNPtUs9Pt7SP7EEaxr8lFM0JNl2oDP/wAqrL1NSuLs&#xA;jaJOKn3O36mwJeoYFdiqE1ex/SGlXljyCG6hkiVyK8S6kBvoJrirwm3XkitQio6HrkkMR/O/SWvP&#xA;IFtfovKTRr9WJ/lhvU4Of+RkEQ+nMnSyqVNGcWHiKHkAR33zdguqKugwsCiY1wtZKpKlYvkRgmNk&#xA;RO7okysBJKMhjyVNZKOhj6ZKmBKYQRY0wtMIIt8aRxJjBF0wEJEku1mH/Sx/qD9ZyzGNmrJLdLzB&#xA;k6a+JTaHBTISR3l/ytqGvagtnaLRRQzzsPgjT+Zv4DvlGfNHHGy5WnwyyyoPWIbfTvL2mDSNHXjT&#xA;e5uf23foST4/q7Zz+XKckrL0uHDHHGglUgyttQ0gxVM9JmoRirJjrkOn2hd6PIQeEZ6H3b2xV8/f&#xA;mJ5ustanFrZJHJBbyMzXSgbudisfgn682+iwGI4j1dZq8wkaHRg7DM5xU3/L7TP0l52slIrFaE3M&#xA;h8PRFV/5KccwNZOgXN00dw96Zs1LsHrf5ZWH1fQTOwo9y9f9iOn68Sll+BXYq7FXjvmLTvqXmTUb&#xA;cVKNMZ4yRxBWcepRfZSxX6MIQlmsaIda8t6xooXk+o2ckUK0rWdKTW+3/GaNMsxyqQLGYsEPlS0N&#xA;YwPDbN7jOzp8nNGxjLWkoqMYWsogpWJh7fqxI2YA7tQpkAklHQR5IBqJR8EfTJANZKZQRYaYEpjb&#xA;xdMaRxJjBD0wEKJIDV4f9KG37A/WctxjZpyy3QDQZOmviRmieXL3Wb4WtstFG80x+zGvif4DvmPq&#xA;M0cUbLl6XBLNLhi9Nt7ax0TTxpmmLxA3nn/bdu5J8f1ZzmbNLJKy9ZgwRxR4YpfIMqbkNIMVQ0gx&#xA;VfZSmMsx6LvU9MVeZ/mB5+n1SWTSdKkJtj8Nzcqf7ynVVP8AJ4nv8uufp9P1PNwc+oHIcmFpbLCl&#xA;BuT9o5tIw4Q64ztSlooJPbfCSyD0T8l9JKWuo6xIu8zrawN7L+8k/Epmn1c9wHaaaO1vTIY2mnSJ&#xA;ersF+85huS9+0eyFlpdtagcTFGAw/wAo7t+JwJRmKuxV2KsC/MfTwl9p+pKNpQ1nM5PcVkiAX/kZ&#xA;U4QgpDaq0bq67MpDKfcb4VfMn5laCNC/MHV7ONPTtZ5frdoO3pXA9VQvsnIp9GbjSzuIdXqY0Ukj&#xA;GZjhFFxDJBrKLjWop45JqJahTfKwmRR8CZMBqJT5NE1SLTYdTktZFsJ3McVyR8DMvUf59d/A4BOJ&#xA;lw3uiWOQjxV6SrW8fTLacclM7eLpjTG0ygh6YCE8SD1aD/SR/qD9Zy7GNnHyy3a0nQbrVLsW8Aoo&#xA;3llP2UXxP8BleozxxRst2k0888+GPxPc9CtrS00mxFjYLxHWWX9p27knOXz55ZJcRez02mjhjwxQ&#xA;cgylvQ0gwqhpBiqHZQakmijqcVea+dfOj6gzaRo7f6JutxcL/uynVVP8nie/y67HTabqebr9Tqeg&#xA;5MVjtUgSg3Y/abxzaRgIurlPiKlIMLIIC8NEp3OVZDs34xu988s6P+hfLthppFJoog9x4+tL+8kH&#xA;+xLcfozRZZ8UiXcY41EBmvkDS/0h5jg5CsUB9R/Dben09MrZvbMCXYq7FXYqlHmzTG1HQLuCNS1w&#xA;i+tbBQCxkiPNVWvQvThXwOKsCsis0Mcqbq4DCnvkkPJ/+cjPLjNZ6T5jiX4rZjY3R78HJlhPyDcx&#xA;9IzN0c6NOJqobW8bhNQD45tw6mSMiyQaijIhkg1SXolJCPfI0i9npn5ZfltJrbLq2qqYdEiNVBqp&#xA;nKnoP8gdz9A9sPVavgHDH6vuc3R6LxDxS+n73uMdvpN5aNplxbI2myIIvRpRQo2FAOlO1OmaaM5A&#xA;8QO7vJY4yjwkbPJfO/5eXnle8EsdZ9IuG/0a56lSd/Tkp+14Hv8AeB0Gk1Qyj+k8tr9FLCb5xKTW&#xA;0fTM2nXEplAgFMBUFr9FXOpaksEIoAgMkh+yi1O5yOTURxQ4pMsWknnycMfie5nWnaRBp9ksMC8U&#xA;6sx+05/mbOZz55ZZcUns9LpYYYcMf7UNdpvlDkICQYqhpBhVCTMqipNMVeXedvOcuoO+kaSx+rGq&#xA;3Fwv+7PFVP8AJ4nv8uuwwaY8zzddqdUOQ5Mft7NLaEKN3I+JvE5t4Q4Q6eeQyKnLiWQQcuRLaE08&#xA;h6KNY832qSLytLKt3deHCEghT/ryFU+nMLVZKiXN00LL2mSQsxZjUsak+5zTu1erflTpH1fS5dQd&#xA;aPcnih/yRufv2xKWdYFdirsVdirsVedTWH6P1q90+lIg/wBYtQAFHozGoCqOgRqp9GFCC84eWo/M&#xA;PlXUtHegN1CREx6LKvxxt9DqDk8c+GQLGceIEPkCKOWGR7eZSksLFHQ9QVNCD8jm+xmw6LIKKNiO&#xA;XBokjYckGmT0n8tfyzbW5BrWsAwaBBv8VVNwVO4H+R4nv0Htg6zVCG0fq+5ztFo/E9Uvp+967JqU&#xA;c3C3tUEFjCAkMSgKKKKDYdNugzSnd3oFbBMLN+mBKcukF9p0lheRie1lXi0T7in+fTJQmYmxzYzh&#xA;GcTGQsF5D5j8qy6JeH0yZbFyfRlPVf8AIf3H450Wk1Yyj+k8jr9DLBKxvA8j+hDabZTXcwjjFAN3&#xA;c9FGWajPHHGy06XTSzS4Y/2PQtF8vxwWyyMnGM7qD9pz/M3t4ZzebNLJKy9hp9PHFHhir3kfXKm9&#xA;I7xOuKEskGKoG6lSJak7+GFXlvnHzdNqMj6XpjfuDVZ51/b8VB/k8T3+XXbaXR16pc3V6rWDkOTH&#xA;YLOOBQo3Y/abxzYCNOolkMl82WFjFBS5AtsUFO3FSfDISLdEPUPyv0U6d5bfUZRS51h+SV6i2hJV&#xA;f+Dk5H6Bmm1eS5V3O50sKjfezKwtJL2+htYwWeVwoA71OYjkvoPTLGOw0+CzjpxhQLUdz1Y/Sd8C&#xA;UTirsVdirsVdirGPOtqsS2msKKfVXENydhWGYhanarcH40HucVUoYumFD5e/PbykdA88PfwpxsdY&#xA;BuFIGwl6Sj6TRvpza6PLca7nWazHRvvYNEc2IdZJPfLU2jRazZy61G8ulJIDdxxGjFP6V6juO4wZ&#xA;OLhPDzRDh4hxcn0troa60ewv9Hkjn8ttGpgNsKIo6KSB27DwO3XOckCDvzeljVbckss36YGSe2Un&#xA;TFU8s36YFdreipqNk4RA7lfjiPRx/XwwwmYmxzY5McZxMZCwUu8q+TY4IFuLiIpCDWKF/tOf5n9v&#xA;AfwyebNLJK5Nen00MUeGKeXkfXKm9I7xOuKpHeJ1xVINQuI7dSW+0eg/jhQ8r82+ap9SmfTtOYmJ&#xA;qieYft+IB/k/X+vd6PQ8Pqnz6B0+s1oO0eSRxWkdtHxG7n7b+ObAumlMyKmftE+GRDJDTHEs4oKU&#xA;5AtoXaJos2u69Z6TE3D6xJ+9lpX04lHKSQ/6iAtmPnycIty8EOI09vlMC8YrdPTtYVWG2j/lijUI&#xA;i/QoGaImzbuwKFM7/KjQ/rF/Jqkq/u7YUjr3c7D7sCXq+BLsVdirsVdirsVU7m3iubaW2mHKGdGj&#xA;kXpVXHEjb2OKsU0QSok2n3Brdae5gkPQso3jkpU05pQ4VYx+dXkc+ZvJNwLePlqGn/6TaU6koPiX&#xA;/ZLUZdgycEr6NOfHxRp8lWz7UPUbHN7EuhmETNE80JRG4nr7H2OSkLDCJo2zb8ofzbv/ACTevpuo&#xA;q135bu2peWbfEYi2xliB26faXow98wc+nEx/Sdhg1HB/Ve6Xdnp7wxato0y3Wj3aiSCRDyChvfw7&#xA;b7joc1JBBou1BBFhXsn6YpT2zfpgVO7R+mKUzHxRYFSu8TriqR3idcVYtr2oQWMZLEGVh8CfxPti&#xA;h4v5r80XOpzvY2Llkc0mmH7XiB4IPxzoNDoOD1z59B3ftdLrdcD6Y/T396UQ2kdrHxXdz9t/HNhI&#xA;ujlMyKjM2VlnEIVjRfnkWxCTNgLZEIKZwAScgS3RD0j8s9BGn6JLrk4peatyhtAeqWiN8b/89ZF4&#xA;j2U+OajWZbPC7jR4qHEyuCGS4nSGMEvIQoA3zBc1795Y0ZNI0W3swoEgXlNT+duv3dMCU1xV2Kux&#xA;V2KuxV2KuxVj+vxCy1G21gbQvS1v/AKx/dSGpp8LnidqmoxVNUhVlKsAVYUIPQg4q+P/AM7vIknl&#xA;LzpNJBGRpepE3Fsw6BmNXT7982+jzcUaPMOo1mHhlfQsJifM8F10gvntVuFqu0oGx8fY4yjaIT4f&#xA;cyj8tvzM1DyldtYXnKfQ7hv9JtTuYmOxkjB7/wAw/azC1GnE/wCs7LT6jh/qve7C9sbqKK6sZlmt&#xA;LhQ8MimoIOaggg0Xaggiwn9m/TAlPLR+mKU4t2qtMCoW8TrirEPNOs22k2xdyGnevoxV6nxPsMVf&#xA;Pvmzzbd6vdyWtrIZPUNJph0b2XwQZ0Gg0HB65/V0Hd+10eu11+mP09T3pVBbx2sdBu5+2/jmylK3&#xA;QykZFTmfKyyiEDK+QLdEIeV8BZgIOV8gW6IRnlby9L5j1+DTgxjtVBmv7gCvpW8e8j/P9lfFiBmP&#xA;ny8EbcvT4uKVPX7qaN3AhjENtEqxW0C/ZjijULGg/wBVQBmiJs2XeAUKZx+Vflw3eoNqs6/uLU/u&#xA;q9DJ2+7rgS9bwJdirsVdirsVdirsVdiqndW0N1bS20w5RTI0cgqRVWFDuOmKpZoM0scUunXTFrux&#xA;PplyKepH1jkHzXr4HFWMfm75Jg84eVLizAAv7cGaxkI3DqOn09Mtw5OCVtWbHxxp8bmKe2uJLadD&#xA;HPCxSRD1DKaEZvoSsOhyRooqF8sBaCF1zarcJyXaVeh8fY4JRtcc+H3J15H8833ly5+q3BZ9Nkb9&#xA;7D+1G3+/I/fxHfMPUacZB/Sdlp9Rwf1X0R5Z8wWmowxNHKsgkXlFIp+F19vfxGaeUSDRdsCCLDML&#xA;N+mBKdWr9MCUp85eZbHQrL1ZiHuZAfq9vWhY+J8FHc4q+X/Onne/17UJYLeUyeoaTTDYED9lPBB+&#xA;P699oNFweufPoO50uu1tjhj9P3pTawR2sfFd3P238c2Zk6CcjIuklyBKgISWTIEtoCEd98i2gIWW&#xA;TASzAQc0lBkCW6IeweWPLx8taALSZeOr6jwuNUr1jUbw23sVB5v/AJRp+zmk1WbjltyDvNLh4I78&#xA;ym2m2FxqN/DZwKWklYKAPc5jOS+gdD0iDSdLgsYQKRr8bD9pz1OBKPxV2KuxV2KuxV2KuxV2KuxV&#xA;KdbtniePVrcVmtVK3CilZLfqw3pun2h9O1Tiq1rhZEDoaqwqD7HFXzl/zkB5A+q3v+KdOjpBOQt+&#xA;ij7L9n+nvmw0Wb+E/B1+tw36h8Xj8MmbUF1MgjYZMlbWQuuLVbhartKPsnx9jkSLZQnw+5NPJ3nG&#xA;80C69CYs1kzVkjH2o2/nT3/XmJqNOMg/pOx0+fg/qvpLyZ5utNVhiQyq0zryikH2ZV8R/leIzTyi&#xA;QaLtQQRYZFrvmqy0Gw9aUiS5cH6vb1oWI7nwUdzgZPmf8wfPeqa9qkkEcpkM399MNgV/kT+WMfj+&#xA;vc6LScPqlzdRrdXtQ5JFaQx20dF3c/bfxzaW6GcjIr3mwWgRUJJciSzEUNJLkSWwBDySbYLZgIWW&#xA;TIEtoDNfyz8spJKfM+oxBrKzfhpsEgqLi7G/Ig9Y4NmbxbivjmBrM9DhHMux0eCzxHkGayyySSNI&#xA;7F5HJZmO5JJqSc1TtXq/5W+VfqlsdYukpPMCLdSN1XoW/h9+JS9BwK7FXYq7FXYq7FXYq7FXYq7F&#xA;XYqxq5tjptwbdRS0lq1rQUCfzRbbbdV9vGhxVLNXtLXULKeyu0ElvOpSRDuCD88INIIt8n+e/J91&#xA;5U16S0YFrKUl7OY9GSvSviubrT5+OPm6XU4OA+SSxS5k24hCMikw2xIX3NqlynJdpR0Pj7HARbKE&#xA;uH3I/wAqea7zQ7oRSFvqvIF0Bo0bD9tPfMPUYBMf0nY4M3D/AFU/81edb/zBfG3tpmn50WW4O3ID&#xA;9kdOKDv4/rhpdNw+qXNs1OosUOSQ3lvHaTKimrlAXfxNT+GbOBdJmNlQM2Stp4VNpsFshFReXBbM&#xA;RUHlyNswEPJLgtmAmvlHyxc+ZNW+rBjBYW49bUbylRDCDQn3dj8KL3P05RnzCAtycGEzlT1q4ltw&#xA;kVtaRC3sLRBDZ2wNQka9KnuzE8mbuxJzSSkZGy7yMREUGReQfKkmuamJJlIsbchpm6V8FHucil7j&#xA;HGkcaxooVEAVVGwAGwAwJbxV2KuxV2KuxV2KuxV2KuxV2KuxVD31lFeWzQvsTujjqrjow+X49OmK&#xA;sQvEmgdo5hxkQ8XA3FfY+B6jFWHeevK1j5m0eSynAWdfitpqbo46HLMWQwlYa8uMTFF8zalpt7pO&#xA;ozWF6hjnhahB6EdmHsc3ePIJCw6XJjMTRdFLk7aqR0MuG2NL7m1W5XktFmHRvH2ORkLZwlSaaXbx&#xA;2sYC7uftv44FkbQmuTf6Yv8AqD9Zy2B2aJx3S0zZK2PCsabBaeFSaXBbIRUXlwWzARGj6TqOt6pB&#xA;pmnR+rdXBooJ4qoAqzux2VVUEsT0GVzmIiy2wxmRoPZLLT9P0PSk0XTG9SBG9S8u6cWurgChkI6h&#xA;F6Rqeg9yc0ubKZm3dYcQgKCO0TR7vWNRisrZSzyGhPYDuTlTa990HRLTRtNisrYCiCsj0oWfucCU&#xA;wxV2KuxV2KuxV2KuxV2KuxV2KuxV2KuxVLdZ0pbyL1EWs6CgAoC69eO+1R1Wv6icVYFfJJBIY3BB&#xA;HSoIqPkdx8sVeffmN5Jt/MVn68AEeqQD9zJ/MP5Gpl+DMYHyaM+ETHm8IkiuLW4e3uEMU0RKyRts&#xA;QRm3jIEWHUygQaKIhlyVsKR8EuC1pMbeXpgJTSVa9L/pq/8AGMfrOTgdmucd0tM2TtjwrDLgtPCp&#xA;tLgtkAqWFlf6nfQWFhC1zeXLiOGFBVmY/wCe57ZGUgBZZxgSaD2fQdAsfK2ltY2ki3Gp3SqNW1Bd&#xA;wxB5fV4D/vpG6t+2d+lBmoz5zM+Tt8GAQHmi7a2nu7hLeBC8shCqoFdzmO3vcvJHlGHQLAGQBr+Y&#xA;Vnfb4R14A/rwJZLirsVdirsVdirsVdirsVdirsVdirsVdirsVdiqReZNBW9haWIUkG7eINKch4j+&#xA;YfSNxRlXmt6k0EzQyrxkQ0I/iPEHtihgPn/yLHrURvrIBNTiHToJR/KffwzJwZ+DY8mjPg49xzeP&#xA;Mk1vM8MyGOWMlXRhQgjsc2glbrDGkXBJuMbRSZW8nTI2mko1+X/Tl/4xr+s5OB2YSG6WGXJ2x4Vp&#xA;lwWmkRpenajq+owadp0DXN7ctwhhTqT1JJOwAG5J2A3ORlIAWWcYEmg9o8ueWbDynZSW1vIl1rFw&#xA;pTUdTTdQp629sSAfT/mbq/8Aq5qs+czPk7TBgEB5o2OOWaVYolLOxoqjMdveyeQPIyaNAt9eqG1G&#xA;QVVT/usEfrxSzTArsVdirsVdirsVdirsVdirsVdirsVdirsVdirsVdirGPNnliO/gM0NEmSpVqdK&#xA;7kNT9knf/JO/SuKvNbiKaCZ4ZlKSoaMp6g4oYj5x8jWevRGeEi31OMfu5v2X/wAiSnb37ZkYc5h7&#xA;mnLhEve8ju7C+029ks76JoLiI0ZG/Ag9wexGbGMgRYcAwINFEW8nTG1pJ/MMn+nL/wAY1/WcnE7M&#xA;JBK/VyVsaTbyz5a1rzLqQsNLh5uBznnc8YYYwd5Jn6Ko/wBqpyE8giLLOGMyNB7VoOiaR5X0+Sw0&#xA;gma5uF4ajqrLxknANfTjU1McNf2erdW7AavNmMz5OyxYRAeaIiilnlWKJS8jmiqOpOUtr1/yH5Aj&#xA;0pFv9RUPfMAY4zuI+9T7/q+fRSzjArsVdirsVdirsVdirsVdirsVdirsVdirsVdirsVdirsVdirF&#xA;/NPlCHUITNbDhcoCVoO3XjQdV9uo7eGKvM7m3ntpmhmUo69vEeIPcHxxQlOveXNI1+1FvqCFJUB+&#xA;rXsYHqxH/jZPFT9FDvluPKYnZhPGJPKNf8qav5duljvUD28tTbXkdTDKB/KezDup3GZ8MgkNnDlj&#xA;MebDPMT/AOnr/wAY1/WcujyapBkHkf8ALXVPMaLqN4503y+rEPfutWlK9Y7aM09RuxP2V7ntlWXO&#xA;Ie9sx4TL3PXrWDTtL01dJ0a3+p6YhDMleUs0g29W4koPUfw7L0UDNdOZkbLnQgIigqWVjd39ylta&#xA;xmWZyAqqK9cgyex+SvIVroka3V2BNqLCtTuI/l74pZfgV2KuxV2KuxV2KuxV2KuxV2KuxV2KuxV2&#xA;KuxV1cVariruWKtcsVa54q1zGKsf8y+WLTVIWdFCXIqVYda9TTtv4dD7dcVeZ3+n3VhOYp1I3PFq&#xA;Ghp8/wBRwoUT6E1vJaXcCXdlN/fWsoqjU6HxVh2YbjCCQbCkA82Gz/lj5FtNcOqy+vqScQbXR7gB&#xA;YYmBJ/fSqeU6/wAqgL/lV73nUyqg0jALtOLu8muHDSEURQkUagKiIuyoiLRVVewApmO3IzQvLmpa&#xA;3ciK1jPp1+OY/ZUfPFXsflfyrpmg24EKiS6YfvLgjc+w8BgSnvMYq3zxVvlirfLFXVxVuuKuxV2K&#xA;uxV2KuxV2KuxV2KtVxVquKtE4qtLYqtL4qsMmKrDLiqm0+KrDc++Kpbq1jZajEUnUciKB6fdXp0x&#xA;VgGq6Dc2EhKgvF1qNyB/Ee/30woY3qIZrlVUFmKgADck1OKsg8ueRZrtluNRPo2+xEf7TYq9K0+K&#xA;zsbdbe0jWKJeyjr88CUWtziqos+KrxLiq8SYqvD4quDYquBxVuuKt1xVvFXYq7FXYq7FXHFWjiq0&#xA;4qtIxVaRiqwg4qpspxVSZTiqkyNiqi8bYqovC+KoeayMqFHFVPbFUvg8s2cN01yIwZj0YgbfwwoT&#xA;NbeQYEqyQuMVVkjbFVZUbFVVVOKqig4qqAHFV4GKrwMVbxVdirYxV2KuxV2KuxV2KupirVMVapir&#xA;RXFWimKrTHiq0xYqtMIxVabceGKrTbDwxVr6sPDFWvqo8MVb+rDwxVsW48MVXCAYquEOKrhFiq4R&#xA;4quCYq2FxVsDFW6Yq3TFXYq7FXYq7FXYq7FXYq7FXYq7FXUxV1BirVMVdxxV3HFXcBirXDFXcMVd&#xA;wGKt8BiruOKu44q6mKt0GKupirsVdirsVdirsVdirsVdirsVdirsVdirsVdirsVdirsVdirsVdir&#xA;sVdirsVdirsVdirsVdirsVdirsVdirsVdirsVdirsVdirsVdirsVdirsVdirsVdirsVdirsVdirs&#xA;VdirsVdirsVdirsVdirsVdirsVdirsVdirsVdirsVdirsVdirsVdirsVdirsVdirsVdirsVdirsV&#xA;dirsVdirsVdirsVdirsVdirsVdirsVdir//Z</xmpGImg:image>
               </rdf:li>
            </rdf:Alt>
         </xmp:Thumbnails>
      </rdf:Description>
      <rdf:Description rdf:about=""
            xmlns:xmpMM="http://ns.adobe.com/xap/1.0/mm/"
            xmlns:stRef="http://ns.adobe.com/xap/1.0/sType/ResourceRef#"
            xmlns:stEvt="http://ns.adobe.com/xap/1.0/sType/ResourceEvent#">
         <xmpMM:InstanceID>xmp.iid:9412FA753762EA11B06BDAC42DB3019F</xmpMM:InstanceID>
         <xmpMM:DocumentID>xmp.did:9412FA753762EA11B06BDAC42DB3019F</xmpMM:DocumentID>
         <xmpMM:OriginalDocumentID>uuid:5D20892493BFDB11914A8590D31508C8</xmpMM:OriginalDocumentID>
         <xmpMM:RenditionClass>proof:pdf</xmpMM:RenditionClass>
         <xmpMM:DerivedFrom rdf:parseType="Resource">
            <stRef:instanceID>xmp.iid:9312FA753762EA11B06BDAC42DB3019F</stRef:instanceID>
            <stRef:documentID>xmp.did:9312FA753762EA11B06BDAC42DB3019F</stRef:documentID>
            <stRef:originalDocumentID>uuid:5D20892493BFDB11914A8590D31508C8</stRef:originalDocumentID>
            <stRef:renditionClass>proof:pdf</stRef:renditionClass>
         </xmpMM:DerivedFrom>
         <xmpMM:History>
            <rdf:Seq>
               <rdf:li rdf:parseType="Resource">
                  <stEvt:action>saved</stEvt:action>
                  <stEvt:instanceID>xmp.iid:8a993138-c1f4-9344-bed1-648184ff2f98</stEvt:instanceID>
                  <stEvt:when>2015-05-04T08:04:11+02:00</stEvt:when>
                  <stEvt:softwareAgent>Adobe Illustrator CC 2014 (Windows)</stEvt:softwareAgent>
                  <stEvt:changed>/</stEvt:changed>
               </rdf:li>
               <rdf:li rdf:parseType="Resource">
                  <stEvt:action>saved</stEvt:action>
                  <stEvt:instanceID>xmp.iid:9412FA753762EA11B06BDAC42DB3019F</stEvt:instanceID>
                  <stEvt:when>2020-03-09T20:10:03+01:00</stEvt:when>
                  <stEvt:softwareAgent>Adobe Illustrator CS6 (Windows)</stEvt:softwareAgent>
                  <stEvt:changed>/</stEvt:changed>
               </rdf:li>
            </rdf:Seq>
         </xmpMM:History>
      </rdf:Description>
      <rdf:Description rdf:about=""
            xmlns:illustrator="http://ns.adobe.com/illustrator/1.0/">
         <illustrator:StartupProfile>Print</illustrator:StartupProfile>
      </rdf:Description>
      <rdf:Description rdf:about=""
            xmlns:xmpTPg="http://ns.adobe.com/xap/1.0/t/pg/"
            xmlns:stDim="http://ns.adobe.com/xap/1.0/sType/Dimensions#"
            xmlns:xmpG="http://ns.adobe.com/xap/1.0/g/">
         <xmpTPg:HasVisibleOverprint>False</xmpTPg:HasVisibleOverprint>
         <xmpTPg:HasVisibleTransparency>True</xmpTPg:HasVisibleTransparency>
         <xmpTPg:NPages>1</xmpTPg:NPages>
         <xmpTPg:MaxPageSize rdf:parseType="Resource">
            <stDim:w>39.840820</stDim:w>
            <stDim:h>40.348633</stDim:h>
            <stDim:unit>Pixels</stDim:unit>
         </xmpTPg:MaxPageSize>
         <xmpTPg:PlateNames>
            <rdf:Seq>
               <rdf:li>Cyan</rdf:li>
               <rdf:li>Magenta</rdf:li>
               <rdf:li>Yellow</rdf:li>
               <rdf:li>Black</rdf:li>
            </rdf:Seq>
         </xmpTPg:PlateNames>
         <xmpTPg:SwatchGroups>
            <rdf:Seq>
               <rdf:li rdf:parseType="Resource">
                  <xmpG:groupName>Default Swatch Group</xmpG:groupName>
                  <xmpG:groupType>0</xmpG:groupType>
                  <xmpG:Colorants>
                     <rdf:Seq>
                        <rdf:li rdf:parseType="Resource">
                           <xmpG:swatchName>Blanco</xmpG:swatchName>
                           <xmpG:mode>RGB</xmpG:mode>
                           <xmpG:type>PROCESS</xmpG:type>
                           <xmpG:red>255</xmpG:red>
                           <xmpG:green>255</xmpG:green>
                           <xmpG:blue>255</xmpG:blue>
                        </rdf:li>
                        <rdf:li rdf:parseType="Resource">
                           <xmpG:swatchName>Negro</xmpG:swatchName>
                           <xmpG:mode>RGB</xmpG:mode>
                           <xmpG:type>PROCESS</xmpG:type>
                           <xmpG:red>29</xmpG:red>
                           <xmpG:green>29</xmpG:green>
                           <xmpG:blue>27</xmpG:blue>
                        </rdf:li>
                     </rdf:Seq>
                  </xmpG:Colorants>
               </rdf:li>
            </rdf:Seq>
         </xmpTPg:SwatchGroups>
      </rdf:Description>
      <rdf:Description rdf:about=""
            xmlns:pdf="http://ns.adobe.com/pdf/1.3/">
         <pdf:Producer>Adobe PDF library 10.01</pdf:Producer>
      </rdf:Description>
   </rdf:RDF>
</x:xmpmeta>
                                                                                                    
                                                                                                    
                                                                                                    
                                                                                                    
                                                                                                    
                                                                                                    
                                                                                                    
                                                                                                    
                                                                                                    
                                                                                                    
                                                                                                    
                                                                                                    
                                                                                                    
                                                                                                    
                                                                                                    
                                                                                                    
                                                                                                    
                                                                                                    
                                                                                                    
                                                                                                    
                           
<?xpacket end="w"?>
	</metadata>
<g id="background" display="none">
	
		<radialGradient id="SVGID_1_" cx="344.7676" cy="393.1079" r="223.708" gradientTransform="matrix(3.7037 0 0 2.4063 -873.6445 -587.8573)" gradientUnits="userSpaceOnUse">
		<stop  offset="0.129" style="stop-color:#1E97D0"/>
		<stop  offset="0.3169" style="stop-color:#14699A"/>
		<stop  offset="0.5021" style="stop-color:#0B426C"/>
		<stop  offset="0.6441" style="stop-color:#062A50"/>
		<stop  offset="0.7258" style="stop-color:#042145"/>
		<stop  offset="1" style="stop-color:#00072A"/>
		<a:midPointStop  offset="0.129" style="stop-color:#1E97D0"/>
		<a:midPointStop  offset="0.4147" style="stop-color:#1E97D0"/>
		<a:midPointStop  offset="0.7258" style="stop-color:#042145"/>
		<a:midPointStop  offset="0.5" style="stop-color:#042145"/>
		<a:midPointStop  offset="1" style="stop-color:#00072A"/>
	</radialGradient>
	<rect display="inline" fill="url(#SVGID_1_)" width="800" height="800"/>
</g>
<g id="objects">
	<g>
		<g display="none">
			<g display="inline">
				<g>
					<path fill="#94D9F8" d="M11.481,43.997v-0.018c-0.026,0.029-0.049,0.052-0.074,0.07c-0.024,0.018-0.051,0.032-0.08,0.042
						c-0.027,0.009-0.059,0.013-0.093,0.013c-0.044,0-0.086-0.009-0.124-0.027c-0.038-0.019-0.07-0.047-0.099-0.082
						c-0.028-0.034-0.049-0.075-0.063-0.123c-0.015-0.047-0.021-0.099-0.021-0.154c0-0.117,0.028-0.208,0.085-0.272
						c0.057-0.065,0.132-0.099,0.225-0.099c0.054,0,0.098,0.009,0.135,0.029c0.038,0.018,0.073,0.047,0.108,0.084v-0.275
						c0-0.038,0.008-0.067,0.022-0.086c0.016-0.02,0.038-0.029,0.065-0.029s0.049,0.009,0.064,0.027
						c0.016,0.018,0.023,0.044,0.023,0.08v0.821c0,0.036-0.007,0.063-0.024,0.08c-0.016,0.018-0.038,0.027-0.063,0.027
						c-0.025,0-0.046-0.009-0.063-0.027S11.481,44.031,11.481,43.997z M11.114,43.724c0,0.05,0.009,0.093,0.025,0.129
						c0.015,0.036,0.036,0.062,0.063,0.08c0.027,0.018,0.058,0.028,0.09,0.028c0.032,0,0.062-0.008,0.09-0.026
						c0.026-0.017,0.048-0.044,0.063-0.079c0.017-0.035,0.025-0.08,0.025-0.132c0-0.05-0.008-0.093-0.025-0.128
						c-0.015-0.036-0.038-0.063-0.065-0.083c-0.028-0.019-0.058-0.027-0.091-0.027c-0.034,0-0.064,0.01-0.092,0.028
						c-0.026,0.02-0.046,0.048-0.062,0.083C11.123,43.634,11.114,43.676,11.114,43.724z"/>
					<path fill="#94D9F8" d="M12.303,43.771h-0.364c0,0.042,0.008,0.079,0.024,0.111s0.04,0.057,0.067,0.073
						c0.027,0.017,0.058,0.024,0.091,0.024c0.023,0,0.042-0.002,0.061-0.008s0.036-0.014,0.054-0.025
						c0.018-0.012,0.033-0.023,0.048-0.035c0.014-0.014,0.034-0.031,0.057-0.053c0.009-0.008,0.024-0.013,0.041-0.013
						c0.019,0,0.035,0.005,0.047,0.017c0.012,0.01,0.018,0.024,0.018,0.044c0,0.017-0.008,0.037-0.02,0.059
						c-0.013,0.023-0.033,0.043-0.06,0.065c-0.027,0.021-0.06,0.037-0.1,0.052c-0.041,0.013-0.086,0.019-0.139,0.019
						c-0.12,0-0.212-0.034-0.28-0.102c-0.066-0.068-0.099-0.161-0.099-0.277c0-0.055,0.009-0.106,0.025-0.153
						c0.017-0.048,0.041-0.088,0.073-0.122c0.03-0.033,0.07-0.059,0.115-0.078c0.045-0.018,0.097-0.026,0.152-0.026
						c0.073,0,0.135,0.016,0.187,0.045c0.053,0.031,0.092,0.071,0.118,0.12c0.026,0.048,0.04,0.098,0.04,0.148
						c0,0.048-0.014,0.078-0.041,0.092C12.39,43.764,12.352,43.771,12.303,43.771z M11.939,43.665h0.337
						c-0.004-0.063-0.022-0.111-0.052-0.142c-0.03-0.032-0.069-0.048-0.118-0.048c-0.046,0-0.084,0.017-0.115,0.048
						C11.963,43.554,11.945,43.602,11.939,43.665z"/>
					<path fill="#94D9F8" d="M13.151,43.86c0,0.051-0.012,0.095-0.037,0.132c-0.024,0.036-0.062,0.065-0.11,0.084
						c-0.049,0.018-0.109,0.027-0.179,0.027c-0.067,0-0.125-0.01-0.172-0.031c-0.048-0.02-0.082-0.045-0.106-0.076
						c-0.022-0.031-0.034-0.062-0.034-0.093c0-0.02,0.007-0.037,0.022-0.053c0.014-0.013,0.034-0.021,0.056-0.021
						c0.019,0,0.034,0.004,0.045,0.013c0.01,0.011,0.02,0.024,0.029,0.041c0.019,0.034,0.043,0.058,0.068,0.075
						c0.027,0.015,0.063,0.024,0.11,0.024c0.037,0,0.066-0.009,0.091-0.024c0.023-0.017,0.035-0.036,0.035-0.057
						c0-0.034-0.012-0.058-0.037-0.072c-0.024-0.016-0.064-0.03-0.121-0.043c-0.064-0.017-0.117-0.034-0.157-0.051
						c-0.04-0.018-0.072-0.041-0.096-0.069c-0.025-0.029-0.038-0.064-0.038-0.105c0-0.039,0.011-0.073,0.034-0.106
						c0.022-0.033,0.055-0.06,0.098-0.08c0.044-0.02,0.096-0.03,0.158-0.03c0.048,0,0.091,0.005,0.129,0.016
						c0.039,0.009,0.07,0.024,0.097,0.04c0.025,0.017,0.045,0.035,0.059,0.056s0.02,0.042,0.02,0.06c0,0.021-0.007,0.04-0.021,0.054
						c-0.016,0.012-0.035,0.019-0.062,0.019c-0.018,0-0.035-0.004-0.048-0.016c-0.013-0.011-0.029-0.027-0.046-0.049
						c-0.013-0.019-0.03-0.034-0.049-0.044s-0.045-0.017-0.078-0.017c-0.034,0-0.063,0.007-0.085,0.021
						c-0.022,0.014-0.033,0.032-0.033,0.054c0,0.02,0.008,0.036,0.024,0.047c0.017,0.013,0.038,0.023,0.066,0.032
						c0.027,0.009,0.066,0.018,0.114,0.03c0.058,0.014,0.106,0.03,0.142,0.051c0.038,0.019,0.065,0.042,0.084,0.068
						C13.142,43.795,13.151,43.826,13.151,43.86z"/>
					<path fill="#94D9F8" d="M13.342,43.259c-0.026,0-0.049-0.007-0.066-0.023c-0.02-0.016-0.029-0.038-0.029-0.068
						c0-0.026,0.011-0.047,0.029-0.065c0.019-0.016,0.042-0.024,0.066-0.024c0.023,0,0.044,0.007,0.063,0.023
						c0.019,0.015,0.028,0.038,0.028,0.066c0,0.03-0.009,0.052-0.028,0.068C13.389,43.25,13.367,43.259,13.342,43.259z
						 M13.434,43.451v0.539c0,0.037-0.009,0.066-0.026,0.084c-0.019,0.02-0.041,0.029-0.068,0.029s-0.049-0.009-0.066-0.029
						s-0.026-0.047-0.026-0.084v-0.533c0-0.037,0.009-0.063,0.026-0.083c0.017-0.02,0.039-0.029,0.066-0.029s0.05,0.009,0.068,0.029
						C13.425,43.394,13.434,43.419,13.434,43.451z"/>
					<path fill="#94D9F8" d="M14.25,43.483v0.541c0,0.062-0.007,0.115-0.019,0.159c-0.014,0.045-0.035,0.083-0.064,0.111
						c-0.028,0.029-0.067,0.05-0.114,0.064c-0.046,0.015-0.106,0.022-0.175,0.022c-0.064,0-0.122-0.01-0.172-0.027
						c-0.05-0.017-0.089-0.041-0.117-0.07c-0.027-0.028-0.041-0.057-0.041-0.086c0-0.022,0.007-0.042,0.023-0.056
						c0.016-0.015,0.034-0.023,0.056-0.023c0.028,0,0.052,0.012,0.072,0.037c0.01,0.011,0.021,0.025,0.031,0.037
						c0.011,0.012,0.023,0.022,0.036,0.032c0.013,0.009,0.028,0.016,0.047,0.02c0.018,0.004,0.038,0.007,0.062,0.007
						c0.049,0,0.087-0.007,0.114-0.021c0.026-0.014,0.045-0.032,0.055-0.057c0.011-0.024,0.018-0.05,0.02-0.078
						c0.002-0.027,0.002-0.071,0.004-0.134c-0.029,0.041-0.062,0.071-0.1,0.092c-0.037,0.021-0.081,0.032-0.133,0.032
						c-0.063,0-0.117-0.016-0.164-0.048c-0.046-0.032-0.083-0.077-0.108-0.133c-0.024-0.058-0.037-0.124-0.037-0.199
						c0-0.056,0.007-0.106,0.022-0.151c0.016-0.045,0.037-0.083,0.065-0.115c0.028-0.031,0.06-0.054,0.098-0.07
						c0.037-0.016,0.078-0.024,0.121-0.024c0.053,0,0.1,0.01,0.137,0.031c0.039,0.021,0.075,0.052,0.109,0.095v-0.024
						c0-0.032,0.007-0.058,0.023-0.075c0.017-0.018,0.037-0.027,0.061-0.027c0.036,0,0.06,0.012,0.071,0.035
						C14.244,43.405,14.25,43.439,14.25,43.483z M13.71,43.718c0,0.075,0.017,0.133,0.05,0.171c0.032,0.039,0.075,0.059,0.128,0.059
						c0.031,0,0.06-0.009,0.088-0.026c0.027-0.016,0.049-0.041,0.067-0.074c0.018-0.034,0.025-0.074,0.025-0.122
						c0-0.076-0.016-0.137-0.05-0.178c-0.033-0.042-0.077-0.063-0.132-0.063c-0.053,0-0.095,0.02-0.128,0.061
						C13.726,43.586,13.71,43.644,13.71,43.718z"/>
					<path fill="#94D9F8" d="M14.546,43.449v0.023c0.033-0.043,0.068-0.075,0.107-0.096c0.039-0.02,0.084-0.03,0.135-0.03
						c0.048,0,0.093,0.01,0.131,0.032c0.039,0.022,0.068,0.052,0.087,0.091c0.011,0.023,0.019,0.048,0.023,0.075
						c0.003,0.026,0.005,0.06,0.005,0.101v0.346c0,0.037-0.008,0.066-0.025,0.084c-0.017,0.02-0.04,0.029-0.066,0.029
						c-0.028,0-0.05-0.009-0.068-0.029s-0.026-0.047-0.026-0.084v-0.311c0-0.061-0.008-0.108-0.025-0.141
						c-0.017-0.032-0.051-0.048-0.103-0.048c-0.032,0-0.063,0.009-0.089,0.029c-0.028,0.02-0.048,0.046-0.061,0.082
						c-0.008,0.027-0.013,0.079-0.013,0.155v0.233c0,0.038-0.009,0.067-0.026,0.086c-0.018,0.018-0.042,0.027-0.068,0.027
						c-0.026,0-0.048-0.009-0.066-0.029s-0.026-0.047-0.026-0.084v-0.539c0-0.035,0.007-0.061,0.022-0.08
						c0.016-0.016,0.037-0.025,0.063-0.025c0.017,0,0.032,0.004,0.046,0.011c0.012,0.008,0.023,0.02,0.031,0.035
						C14.542,43.407,14.546,43.426,14.546,43.449z"/>
					<path fill="#94D9F8" d="M15.68,43.771h-0.365c0,0.042,0.009,0.079,0.026,0.111c0.016,0.032,0.038,0.057,0.066,0.073
						c0.027,0.017,0.058,0.024,0.091,0.024c0.022,0,0.042-0.002,0.062-0.008c0.019-0.005,0.036-0.014,0.053-0.025
						c0.017-0.012,0.033-0.023,0.047-0.035c0.015-0.014,0.034-0.031,0.058-0.053c0.009-0.008,0.021-0.013,0.042-0.013
						c0.018,0,0.034,0.005,0.045,0.017c0.012,0.01,0.018,0.024,0.018,0.044c0,0.017-0.006,0.037-0.02,0.059
						c-0.014,0.023-0.033,0.043-0.06,0.065c-0.027,0.021-0.061,0.037-0.101,0.052c-0.04,0.013-0.086,0.019-0.138,0.019
						c-0.12,0-0.213-0.034-0.28-0.102c-0.066-0.068-0.1-0.161-0.1-0.277c0-0.055,0.008-0.106,0.024-0.153
						c0.017-0.048,0.041-0.088,0.072-0.122c0.032-0.033,0.07-0.059,0.116-0.078c0.046-0.018,0.097-0.026,0.153-0.026
						c0.073,0,0.136,0.016,0.188,0.045c0.051,0.031,0.09,0.071,0.116,0.12c0.027,0.048,0.04,0.098,0.04,0.148
						c0,0.048-0.014,0.078-0.041,0.092C15.766,43.764,15.728,43.771,15.68,43.771z M15.315,43.665h0.338
						c-0.004-0.063-0.022-0.111-0.051-0.142c-0.031-0.032-0.07-0.048-0.118-0.048s-0.086,0.017-0.115,0.048
						C15.34,43.554,15.321,43.602,15.315,43.665z"/>
					<path fill="#94D9F8" d="M16.439,43.997v-0.018c-0.025,0.029-0.049,0.052-0.074,0.07s-0.05,0.032-0.078,0.042
						c-0.029,0.009-0.06,0.013-0.093,0.013c-0.045,0-0.087-0.009-0.125-0.027c-0.039-0.019-0.07-0.047-0.098-0.082
						c-0.028-0.034-0.048-0.075-0.063-0.123s-0.022-0.099-0.022-0.154c0-0.117,0.029-0.208,0.085-0.272
						c0.057-0.065,0.132-0.099,0.225-0.099c0.054,0,0.099,0.009,0.137,0.029c0.036,0.018,0.072,0.047,0.107,0.084v-0.275
						c0-0.038,0.007-0.067,0.023-0.086c0.015-0.02,0.038-0.029,0.065-0.029c0.029,0,0.05,0.009,0.065,0.027
						c0.017,0.018,0.023,0.044,0.023,0.08v0.821c0,0.036-0.008,0.063-0.024,0.08c-0.017,0.018-0.037,0.027-0.064,0.027
						c-0.025,0-0.045-0.009-0.063-0.027C16.448,44.058,16.439,44.031,16.439,43.997z M16.072,43.724c0,0.05,0.009,0.093,0.024,0.129
						c0.016,0.036,0.038,0.062,0.064,0.08c0.028,0.018,0.058,0.028,0.089,0.028c0.033,0,0.063-0.008,0.09-0.026
						c0.027-0.017,0.049-0.044,0.064-0.079c0.017-0.035,0.025-0.08,0.025-0.132c0-0.05-0.009-0.093-0.025-0.128
						c-0.015-0.036-0.038-0.063-0.065-0.083c-0.028-0.019-0.058-0.027-0.091-0.027s-0.064,0.01-0.091,0.028
						c-0.027,0.02-0.047,0.048-0.063,0.083C16.08,43.634,16.072,43.676,16.072,43.724z"/>
					<path fill="#94D9F8" d="M17.201,43.175v0.285c0.035-0.037,0.071-0.065,0.107-0.084c0.036-0.019,0.081-0.029,0.135-0.029
						c0.063,0,0.116,0.016,0.163,0.044c0.047,0.03,0.083,0.072,0.109,0.128c0.025,0.056,0.038,0.122,0.038,0.198
						c0,0.057-0.007,0.107-0.021,0.155c-0.015,0.047-0.036,0.088-0.062,0.123c-0.028,0.034-0.062,0.062-0.101,0.081
						c-0.038,0.018-0.081,0.027-0.128,0.027c-0.029,0-0.055-0.003-0.081-0.01c-0.025-0.006-0.046-0.016-0.064-0.027
						c-0.018-0.011-0.033-0.022-0.045-0.034c-0.013-0.013-0.029-0.03-0.05-0.053v0.018c0,0.035-0.008,0.063-0.026,0.08
						c-0.016,0.018-0.039,0.027-0.063,0.027c-0.027,0-0.048-0.009-0.064-0.027c-0.015-0.017-0.023-0.044-0.023-0.08v-0.813
						c0-0.039,0.008-0.066,0.023-0.086c0.015-0.02,0.037-0.029,0.064-0.029c0.028,0,0.05,0.009,0.065,0.027
						C17.192,43.116,17.201,43.141,17.201,43.175z M17.209,43.729c0,0.074,0.018,0.131,0.051,0.171
						c0.034,0.039,0.079,0.06,0.133,0.06c0.046,0,0.087-0.021,0.121-0.062c0.034-0.04,0.052-0.099,0.052-0.174
						c0-0.05-0.008-0.092-0.022-0.127c-0.014-0.035-0.034-0.063-0.06-0.083c-0.026-0.019-0.057-0.028-0.091-0.028
						c-0.036,0-0.067,0.01-0.095,0.028c-0.028,0.02-0.05,0.048-0.065,0.083C17.217,43.635,17.209,43.678,17.209,43.729z"/>
					<path fill="#94D9F8" d="M17.994,44.127l0.017-0.042l-0.229-0.577c-0.014-0.033-0.021-0.057-0.021-0.072
						c0-0.017,0.004-0.031,0.012-0.044s0.02-0.024,0.033-0.033c0.015-0.008,0.029-0.012,0.045-0.012
						c0.027,0,0.047,0.008,0.062,0.025c0.013,0.017,0.026,0.042,0.036,0.074l0.158,0.458l0.148-0.426
						c0.013-0.035,0.022-0.061,0.032-0.082c0.01-0.02,0.02-0.032,0.031-0.039c0.011-0.007,0.026-0.01,0.045-0.01
						c0.014,0,0.027,0.004,0.041,0.011c0.014,0.007,0.023,0.018,0.03,0.031c0.007,0.012,0.01,0.025,0.01,0.04
						c-0.001,0.008-0.004,0.021-0.009,0.036c-0.003,0.017-0.009,0.032-0.015,0.048l-0.243,0.636c-0.021,0.057-0.043,0.1-0.063,0.132
						c-0.019,0.032-0.046,0.057-0.078,0.074c-0.034,0.018-0.078,0.026-0.134,0.026c-0.055,0-0.095-0.005-0.123-0.018
						c-0.028-0.012-0.042-0.034-0.042-0.065c0-0.02,0.006-0.038,0.02-0.049c0.014-0.011,0.032-0.017,0.058-0.017
						c0.011,0,0.02,0,0.031,0.003c0.011,0.003,0.021,0.004,0.029,0.004c0.022,0,0.038-0.003,0.051-0.01
						c0.012-0.006,0.023-0.017,0.033-0.032C17.969,44.181,17.982,44.157,17.994,44.127z"/>
				</g>
				<g>
					<path fill="#94D9F8" d="M20.692,43.362h0.045v-0.057c0-0.058,0.008-0.104,0.022-0.138c0.015-0.035,0.039-0.06,0.076-0.075
						c0.035-0.016,0.083-0.023,0.144-0.023c0.11,0,0.163,0.026,0.163,0.08c0,0.018-0.006,0.032-0.017,0.044
						c-0.011,0.012-0.025,0.018-0.04,0.018c-0.007,0-0.021-0.001-0.038-0.004c-0.017-0.001-0.033-0.004-0.045-0.004
						c-0.033,0-0.054,0.01-0.065,0.03c-0.008,0.021-0.013,0.048-0.013,0.085v0.044h0.045c0.071,0,0.106,0.02,0.106,0.064
						c0,0.031-0.01,0.049-0.028,0.058c-0.02,0.008-0.045,0.013-0.078,0.013h-0.045v0.493c0,0.037-0.009,0.065-0.027,0.084
						c-0.018,0.02-0.04,0.029-0.068,0.029c-0.026,0-0.048-0.009-0.066-0.029c-0.018-0.02-0.025-0.047-0.025-0.084v-0.493h-0.052
						c-0.028,0-0.049-0.005-0.063-0.019c-0.015-0.012-0.023-0.029-0.023-0.048C20.599,43.385,20.631,43.362,20.692,43.362"/>
					<path fill="#94D9F8" d="M21.303,43.835v0.155c0,0.038-0.009,0.067-0.027,0.086c-0.017,0.018-0.04,0.027-0.067,0.027
						c-0.026,0-0.048-0.009-0.066-0.029c-0.018-0.019-0.026-0.047-0.026-0.084v-0.518c0-0.083,0.03-0.126,0.09-0.126
						c0.031,0,0.054,0.009,0.067,0.03c0.015,0.018,0.021,0.047,0.023,0.086c0.022-0.039,0.043-0.068,0.067-0.086
						c0.024-0.021,0.055-0.03,0.094-0.03c0.041,0,0.078,0.009,0.114,0.03c0.037,0.018,0.057,0.045,0.057,0.077
						c0,0.022-0.009,0.042-0.025,0.056c-0.016,0.015-0.032,0.022-0.05,0.022c-0.007,0-0.024-0.004-0.051-0.014
						c-0.026-0.006-0.049-0.012-0.069-0.012c-0.026,0-0.048,0.007-0.066,0.022c-0.017,0.015-0.031,0.036-0.041,0.064
						c-0.008,0.027-0.016,0.062-0.02,0.101C21.305,43.732,21.303,43.778,21.303,43.835"/>
					<path fill="#94D9F8" d="M22.159,43.77h-0.364c0.001,0.042,0.01,0.08,0.024,0.112c0.018,0.032,0.04,0.057,0.067,0.073
						s0.058,0.024,0.092,0.024c0.021,0,0.042-0.002,0.061-0.007c0.017-0.005,0.036-0.014,0.052-0.025
						c0.019-0.012,0.033-0.023,0.049-0.036c0.015-0.012,0.033-0.03,0.057-0.051c0.01-0.008,0.023-0.013,0.041-0.013
						c0.019,0,0.034,0.005,0.045,0.017c0.013,0.009,0.018,0.024,0.018,0.043c0,0.017-0.005,0.037-0.018,0.059
						c-0.014,0.023-0.034,0.044-0.06,0.065c-0.028,0.02-0.061,0.037-0.101,0.052c-0.039,0.013-0.085,0.019-0.138,0.019
						c-0.121,0-0.213-0.034-0.28-0.102c-0.066-0.068-0.1-0.161-0.1-0.277c0-0.055,0.009-0.106,0.025-0.153
						c0.015-0.048,0.04-0.088,0.072-0.122c0.031-0.034,0.07-0.06,0.116-0.078c0.045-0.018,0.096-0.026,0.152-0.026
						c0.072,0,0.135,0.015,0.187,0.045c0.052,0.031,0.092,0.07,0.117,0.12c0.026,0.048,0.039,0.098,0.039,0.148
						c0,0.047-0.013,0.077-0.041,0.091C22.246,43.764,22.208,43.77,22.159,43.77 M21.795,43.665h0.337
						c-0.004-0.064-0.021-0.111-0.05-0.142c-0.03-0.032-0.069-0.048-0.118-0.048c-0.047,0-0.085,0.017-0.114,0.048
						C21.819,43.554,21.801,43.602,21.795,43.665"/>
					<path fill="#94D9F8" d="M22.936,43.77H22.57c0,0.042,0.009,0.08,0.025,0.112c0.017,0.032,0.038,0.057,0.066,0.073
						c0.028,0.017,0.058,0.024,0.091,0.024c0.022,0,0.043-0.002,0.061-0.007s0.036-0.014,0.053-0.025
						c0.018-0.012,0.034-0.023,0.048-0.036c0.015-0.012,0.033-0.03,0.056-0.051c0.01-0.008,0.023-0.013,0.041-0.013
						c0.02,0,0.035,0.005,0.048,0.017c0.011,0.009,0.016,0.024,0.016,0.043c0,0.017-0.006,0.037-0.02,0.059
						c-0.013,0.023-0.033,0.044-0.06,0.065c-0.025,0.02-0.06,0.037-0.1,0.052c-0.04,0.013-0.087,0.019-0.138,0.019
						c-0.121,0-0.213-0.034-0.28-0.102c-0.066-0.068-0.101-0.161-0.101-0.277c0-0.055,0.009-0.106,0.026-0.153
						c0.016-0.048,0.039-0.088,0.071-0.122s0.071-0.06,0.116-0.078c0.046-0.018,0.097-0.026,0.153-0.026
						c0.073,0,0.134,0.015,0.187,0.045c0.053,0.031,0.092,0.07,0.117,0.12c0.026,0.048,0.039,0.098,0.039,0.148
						c0,0.047-0.013,0.077-0.04,0.091C23.021,43.764,22.983,43.77,22.936,43.77 M22.57,43.665h0.338
						c-0.005-0.064-0.022-0.111-0.052-0.142c-0.03-0.032-0.069-0.048-0.119-0.048c-0.045,0-0.083,0.017-0.113,0.048
						C22.593,43.554,22.576,43.602,22.57,43.665"/>
					<path fill="#94D9F8" d="M23.343,43.451v0.021c0.035-0.043,0.071-0.074,0.109-0.095c0.037-0.021,0.081-0.031,0.128-0.031
						c0.057,0,0.111,0.015,0.159,0.044s0.085,0.073,0.113,0.13c0.029,0.057,0.042,0.124,0.042,0.203
						c0,0.057-0.007,0.109-0.024,0.158c-0.016,0.049-0.039,0.089-0.067,0.121c-0.029,0.033-0.062,0.058-0.1,0.075
						c-0.039,0.017-0.08,0.026-0.124,0.026c-0.052,0-0.098-0.01-0.134-0.032c-0.036-0.021-0.07-0.052-0.103-0.093v0.279
						c0,0.082-0.03,0.123-0.09,0.123c-0.035,0-0.058-0.011-0.07-0.031c-0.011-0.021-0.017-0.052-0.017-0.094v-0.804
						c0-0.035,0.007-0.061,0.024-0.08c0.014-0.018,0.036-0.025,0.063-0.025c0.027,0,0.048,0.008,0.065,0.027
						C23.335,43.39,23.343,43.416,23.343,43.451 M23.708,43.721c0-0.049-0.007-0.092-0.022-0.127
						c-0.016-0.035-0.035-0.062-0.063-0.082c-0.027-0.019-0.057-0.027-0.089-0.027c-0.051,0-0.095,0.02-0.13,0.061
						c-0.036,0.04-0.054,0.1-0.054,0.179c0,0.074,0.018,0.131,0.054,0.172c0.035,0.042,0.078,0.063,0.13,0.063
						c0.031,0,0.06-0.01,0.086-0.028c0.026-0.018,0.048-0.044,0.064-0.081C23.701,43.815,23.708,43.772,23.708,43.721"/>
					<path fill="#94D9F8" d="M24.083,43.259c-0.026,0-0.047-0.008-0.066-0.025c-0.019-0.015-0.028-0.037-0.028-0.067
						c0-0.026,0.009-0.047,0.029-0.065c0.018-0.016,0.04-0.026,0.065-0.026c0.024,0,0.045,0.008,0.064,0.024
						c0.019,0.015,0.027,0.038,0.027,0.066c0,0.029-0.009,0.052-0.026,0.067C24.129,43.25,24.107,43.259,24.083,43.259
						 M24.174,43.451v0.54c0,0.036-0.008,0.065-0.026,0.083c-0.018,0.02-0.041,0.029-0.067,0.029s-0.048-0.009-0.067-0.029
						c-0.017-0.02-0.024-0.047-0.024-0.083v-0.534c0-0.037,0.008-0.065,0.024-0.083c0.019-0.019,0.04-0.028,0.067-0.028
						s0.05,0.009,0.067,0.028C24.167,43.392,24.174,43.418,24.174,43.451"/>
					<path fill="#94D9F8" d="M24.775,44.019l-0.165-0.271l-0.101,0.095v0.149c0,0.035-0.01,0.063-0.029,0.083
						c-0.018,0.02-0.04,0.029-0.064,0.029c-0.028,0-0.051-0.009-0.068-0.029c-0.017-0.019-0.025-0.047-0.025-0.084v-0.794
						c0-0.042,0.008-0.073,0.024-0.094c0.016-0.023,0.039-0.032,0.069-0.032c0.028,0,0.051,0.009,0.068,0.029
						c0.017,0.02,0.025,0.048,0.025,0.086v0.452l0.209-0.221c0.027-0.027,0.045-0.045,0.061-0.055
						c0.013-0.011,0.03-0.016,0.049-0.016c0.023,0,0.042,0.007,0.059,0.022c0.014,0.014,0.023,0.033,0.023,0.055
						c0,0.028-0.025,0.064-0.075,0.11l-0.101,0.09l0.192,0.301c0.015,0.023,0.023,0.039,0.031,0.05
						c0.005,0.012,0.009,0.024,0.009,0.034c0,0.03-0.008,0.054-0.025,0.07c-0.016,0.018-0.038,0.026-0.063,0.026
						c-0.022,0-0.041-0.005-0.053-0.019C24.813,44.072,24.796,44.05,24.775,44.019"/>
					<path fill="#94D9F8" d="M25.18,44.103c-0.027,0-0.05-0.009-0.072-0.027c-0.019-0.018-0.031-0.043-0.031-0.077
						c0-0.027,0.01-0.051,0.03-0.07c0.02-0.021,0.044-0.031,0.072-0.031c0.029,0,0.054,0.01,0.073,0.029
						c0.021,0.02,0.031,0.044,0.031,0.072c0,0.033-0.011,0.059-0.031,0.077C25.232,44.094,25.208,44.103,25.18,44.103"/>
					<path fill="#94D9F8" d="M26.107,43.872c0,0.023-0.007,0.049-0.021,0.075c-0.013,0.026-0.035,0.052-0.064,0.076
						c-0.029,0.023-0.065,0.043-0.107,0.057c-0.043,0.015-0.092,0.022-0.147,0.022c-0.115,0-0.205-0.034-0.269-0.101
						c-0.065-0.067-0.097-0.157-0.097-0.269c0-0.077,0.015-0.145,0.044-0.204c0.03-0.059,0.072-0.104,0.128-0.136
						c0.055-0.032,0.123-0.047,0.201-0.047c0.048,0,0.092,0.006,0.133,0.021c0.04,0.014,0.074,0.033,0.102,0.055
						c0.028,0.022,0.049,0.046,0.063,0.071c0.015,0.025,0.022,0.049,0.022,0.072c0,0.021-0.008,0.041-0.024,0.056
						c-0.018,0.015-0.038,0.022-0.062,0.022c-0.015,0-0.029-0.004-0.038-0.012c-0.01-0.008-0.023-0.021-0.035-0.038
						c-0.022-0.035-0.047-0.062-0.071-0.078c-0.025-0.017-0.057-0.025-0.095-0.025c-0.055,0-0.1,0.021-0.132,0.063
						c-0.034,0.043-0.051,0.103-0.051,0.177c0,0.035,0.003,0.068,0.013,0.096c0.008,0.03,0.021,0.055,0.038,0.076
						c0.016,0.021,0.035,0.036,0.059,0.047c0.023,0.011,0.049,0.015,0.077,0.015c0.038,0,0.069-0.008,0.096-0.025
						c0.026-0.017,0.05-0.043,0.071-0.079c0.011-0.021,0.022-0.037,0.036-0.049c0.013-0.012,0.029-0.018,0.048-0.018
						c0.022,0,0.042,0.008,0.056,0.026C26.1,43.835,26.107,43.854,26.107,43.872"/>
					<path fill="#94D9F8" d="M26.912,43.725c0,0.056-0.008,0.107-0.026,0.154c-0.018,0.046-0.042,0.088-0.076,0.121
						c-0.033,0.034-0.072,0.06-0.117,0.077c-0.045,0.018-0.096,0.027-0.153,0.027c-0.056,0-0.108-0.009-0.152-0.027
						s-0.084-0.044-0.117-0.078c-0.034-0.034-0.059-0.074-0.076-0.12c-0.016-0.047-0.025-0.098-0.025-0.154s0.009-0.108,0.026-0.155
						c0.017-0.046,0.042-0.086,0.074-0.119c0.033-0.034,0.072-0.06,0.118-0.077c0.046-0.02,0.097-0.027,0.152-0.027
						c0.056,0,0.108,0.008,0.153,0.028c0.046,0.018,0.085,0.043,0.118,0.078c0.033,0.034,0.058,0.073,0.076,0.12
						C26.903,43.617,26.912,43.669,26.912,43.725 M26.724,43.725c0-0.077-0.017-0.136-0.05-0.178
						c-0.033-0.042-0.078-0.064-0.134-0.064c-0.037,0-0.069,0.01-0.097,0.029s-0.048,0.046-0.064,0.083
						c-0.015,0.038-0.023,0.081-0.023,0.129c0,0.048,0.008,0.092,0.023,0.128c0.015,0.036,0.036,0.064,0.064,0.083
						c0.027,0.019,0.059,0.029,0.097,0.029c0.056,0,0.102-0.021,0.134-0.063C26.707,43.858,26.724,43.8,26.724,43.725"/>
					<path fill="#94D9F8" d="M27.623,43.739v0.247c0,0.04-0.01,0.069-0.027,0.089s-0.041,0.029-0.07,0.029
						c-0.029,0-0.052-0.009-0.069-0.029c-0.018-0.02-0.026-0.049-0.026-0.089v-0.297c0-0.045-0.002-0.083-0.004-0.108
						c-0.004-0.026-0.012-0.047-0.027-0.064c-0.013-0.017-0.036-0.025-0.067-0.025c-0.061,0-0.102,0.021-0.121,0.063
						c-0.019,0.041-0.029,0.101-0.029,0.18v0.251c0,0.04-0.008,0.068-0.026,0.088c-0.017,0.02-0.04,0.03-0.069,0.03
						c-0.028,0-0.052-0.01-0.07-0.03c-0.018-0.02-0.027-0.048-0.027-0.088v-0.533c0-0.035,0.009-0.062,0.024-0.079
						c0.016-0.02,0.037-0.028,0.064-0.028c0.026,0,0.047,0.008,0.064,0.025c0.017,0.018,0.025,0.041,0.025,0.071v0.018
						c0.033-0.038,0.068-0.067,0.104-0.084c0.038-0.019,0.078-0.028,0.123-0.028c0.047,0,0.086,0.009,0.121,0.029
						c0.034,0.018,0.062,0.047,0.084,0.083c0.03-0.038,0.064-0.065,0.101-0.084c0.036-0.019,0.076-0.028,0.12-0.028
						c0.05,0,0.095,0.01,0.132,0.031c0.036,0.02,0.063,0.049,0.081,0.086c0.017,0.033,0.025,0.086,0.025,0.159v0.363
						c0,0.04-0.009,0.069-0.027,0.089c-0.019,0.02-0.042,0.029-0.07,0.029s-0.052-0.01-0.069-0.03
						c-0.019-0.02-0.028-0.048-0.028-0.088v-0.313c0-0.039,0-0.071-0.005-0.095c-0.003-0.025-0.013-0.045-0.027-0.062
						c-0.015-0.016-0.038-0.024-0.069-0.024c-0.025,0-0.047,0.007-0.07,0.021c-0.022,0.015-0.039,0.034-0.05,0.059
						C27.629,43.603,27.623,43.658,27.623,43.739"/>
				</g>
				<g>
					<path fill="#94D9F8" d="M18.95,43.679c-0.001,0-0.001,0-0.001-0.001C18.948,43.679,18.948,43.679,18.95,43.679z"/>
					<path fill="#94D9F8" d="M18.959,43.739L18.959,43.739c-0.005-0.016-0.006-0.034-0.009-0.05
						C18.953,43.706,18.955,43.723,18.959,43.739z"/>
					<path fill="#94D9F8" d="M19.02,43.913c0-0.001,0-0.002-0.001-0.003C19.02,43.91,19.02,43.911,19.02,43.913z"/>
					<path fill="#94D9F8" d="M19.015,43.901c-0.001-0.005-0.003-0.007-0.005-0.011C19.012,43.895,19.013,43.896,19.015,43.901z"/>
					<path fill="#94D9F8" d="M18.976,43.806c0.01,0.029,0.021,0.055,0.034,0.082C18.995,43.861,18.986,43.834,18.976,43.806
						L18.976,43.806z"/>
					<path fill="#94D9F8" d="M19.67,42.966c0.036,0,0.063,0.003,0.092,0.007l0.009-0.055c0,0-0.083-0.026-0.193-0.017l-0.01-0.03
						c0.034-0.007,0.06-0.038,0.06-0.075c0-0.041-0.034-0.075-0.075-0.075c-0.042,0-0.077,0.034-0.077,0.075
						c0,0.037,0.026,0.068,0.061,0.075l0.009,0.033c-0.118,0.016-0.211,0.062-0.211,0.062l0.016,0.052
						c0.071-0.023,0.133-0.038,0.189-0.045C19.596,42.968,19.637,42.966,19.67,42.966z"/>
					<path fill="#94D9F8" d="M19.019,43.243L19.019,43.243c0.003-0.004,0.006-0.007,0.008-0.012l-0.021-0.015l-0.037-0.026
						c-0.001,0.003-0.055,0.054-0.099,0.147c-0.003-0.003-0.005-0.006-0.007-0.008c-0.014-0.015-0.031-0.023-0.055-0.021h0
						c-0.015,0-0.024-0.004-0.031-0.011c0.007-0.008,0.011-0.018,0.011-0.029c0-0.027-0.021-0.049-0.048-0.049
						c-0.026,0-0.049,0.021-0.049,0.049c0,0.026,0.022,0.048,0.049,0.048c0.004,0,0.008-0.001,0.011-0.002
						c0.012,0.014,0.031,0.025,0.058,0.023c0.016,0,0.026,0.004,0.032,0.011c0.008,0.009,0.01,0.022,0.011,0.031v0
						c-0.032,0.085-0.022,0.192-0.022,0.192l0.076,0.004c0.001-0.04,0.007-0.108,0.027-0.162
						C18.969,43.311,19.017,43.246,19.019,43.243z"/>
					<path fill="#94D9F8" d="M20.332,43.029c-0.025,0-0.048,0.021-0.048,0.049c0,0.003,0.001,0.008,0.002,0.011
						c-0.013,0.012-0.025,0.031-0.025,0.058c0,0.014-0.003,0.024-0.01,0.032c-0.006,0.005-0.014,0.008-0.021,0.01
						c-0.057-0.079-0.126-0.127-0.126-0.127l-0.055,0.059c0.042,0.037,0.083,0.084,0.124,0.142c0.029,0.041,0.058,0.093,0.082,0.145
						l0.074-0.034c0,0-0.034-0.084-0.082-0.158c0.009-0.003,0.016-0.007,0.024-0.013c0.014-0.014,0.021-0.032,0.021-0.055
						c0-0.014,0.005-0.025,0.011-0.032c0.008,0.006,0.019,0.011,0.03,0.011c0.027,0,0.048-0.022,0.048-0.047
						C20.38,43.05,20.359,43.029,20.332,43.029z"/>
					<path fill="#94D9F8" d="M20.141,43.69c-0.101,0.048-0.268,0.114-0.487,0.146c-0.087,0.011-0.169,0.016-0.247,0.016
						c-0.1,0-0.188-0.008-0.256-0.016c-0.077-0.01-0.137-0.022-0.175-0.03c0.01,0.028,0.02,0.055,0.034,0.082
						c0,0.001,0,0.001,0,0.002c0.002,0.004,0.004,0.006,0.005,0.011c0.002,0.002,0.003,0.006,0.004,0.008
						c0.001,0.001,0.001,0.002,0.001,0.003c0.023,0.041,0.047,0.078,0.078,0.111c0.104,0.112,0.209,0.13,0.209,0.131h0.002
						l0.001,0.001c0.001,0,0.095,0.03,0.236,0.03c0.141,0,0.278-0.028,0.408-0.083c0.097-0.049,0.189-0.125,0.234-0.192
						c0.035-0.052,0.061-0.107,0.075-0.165c0.008-0.031,0.015-0.08,0.01-0.131C20.248,43.634,20.202,43.66,20.141,43.69z"/>
					<path fill="#94D9F8" d="M19.051,43.268c-0.002,0.003-0.047,0.066-0.082,0.161c-0.024,0.072-0.024,0.175-0.024,0.177v0.001
						c0,0.023,0.002,0.048,0.003,0.072c0,0.001,0,0.001,0.001,0.001c0,0.003,0,0.006,0.001,0.009
						c0.002,0.017,0.004,0.034,0.009,0.05c0.05,0.013,0.35,0.084,0.686,0.036c0.209-0.029,0.37-0.092,0.467-0.138
						c0.08-0.04,0.131-0.074,0.152-0.089c-0.021-0.074-0.075-0.19-0.125-0.262c-0.145-0.206-0.299-0.259-0.38-0.272
						c-0.031-0.004-0.054-0.007-0.089-0.007c-0.032,0-0.072,0.002-0.125,0.008c-0.054,0.005-0.112,0.018-0.182,0.042
						c-0.097,0.033-0.185,0.083-0.254,0.148l-0.002,0.001C19.098,43.216,19.076,43.235,19.051,43.268z M19.934,43.219
						c0.069,0,0.125,0.056,0.125,0.125s-0.056,0.126-0.125,0.126c-0.069,0-0.125-0.057-0.125-0.126S19.864,43.219,19.934,43.219z
						 M19.341,43.213c0.112,0,0.203,0.091,0.203,0.203s-0.091,0.203-0.203,0.203c-0.111,0-0.202-0.092-0.202-0.203
						S19.229,43.213,19.341,43.213z"/>
				</g>
			</g>
		</g>
		<g>
			
				<radialGradient id="SVGID_2_" cx="884.3555" cy="1071.4121" r="0.3506" gradientTransform="matrix(56.7274 0 0 11.2782 -50147.2188 -12047.2109)" gradientUnits="userSpaceOnUse">
				<stop  offset="0" style="stop-color:#6C6F71"/>
				<stop  offset="0.0797" style="stop-color:#878A8B"/>
				<stop  offset="0.2062" style="stop-color:#ACADAF"/>
				<stop  offset="0.3391" style="stop-color:#CACBCC"/>
				<stop  offset="0.4783" style="stop-color:#E1E2E2"/>
				<stop  offset="0.6267" style="stop-color:#F2F2F2"/>
				<stop  offset="0.7906" style="stop-color:#FCFCFC"/>
				<stop  offset="1" style="stop-color:#FFFFFF"/>
				<a:midPointStop  offset="0" style="stop-color:#6C6F71"/>
				<a:midPointStop  offset="0.2451" style="stop-color:#6C6F71"/>
				<a:midPointStop  offset="1" style="stop-color:#FFFFFF"/>
			</radialGradient>
			<ellipse opacity="0.3" fill="url(#SVGID_2_)"  a:adobe-blending-mode="colorBurn" cx="19.92" cy="36.388" rx="19.92" ry="3.96"/>
			<g>
				<linearGradient id="SVGID_3_" gradientUnits="userSpaceOnUse" x1="42.4941" y1="30.585" x2="-4.1447" y2="-2.6003">
					<stop  offset="0" style="stop-color:#606060"/>
					<stop  offset="0.092" style="stop-color:#7D7E7F"/>
					<stop  offset="0.2312" style="stop-color:#B0B2B5"/>
					<stop  offset="0.3543" style="stop-color:#E7E8E8"/>
					<stop  offset="0.4194" style="stop-color:#FFFFFF"/>
					<stop  offset="0.6183" style="stop-color:#A9AAAA"/>
					<stop  offset="0.871" style="stop-color:#868789"/>
					<stop  offset="0.929" style="stop-color:#B4B5B6"/>
					<stop  offset="1" style="stop-color:#F2F3F3"/>
					<a:midPointStop  offset="0" style="stop-color:#606060"/>
					<a:midPointStop  offset="0.53" style="stop-color:#606060"/>
					<a:midPointStop  offset="0.2312" style="stop-color:#B0B2B5"/>
					<a:midPointStop  offset="0.4614" style="stop-color:#B0B2B5"/>
					<a:midPointStop  offset="0.4194" style="stop-color:#FFFFFF"/>
					<a:midPointStop  offset="0.5" style="stop-color:#FFFFFF"/>
					<a:midPointStop  offset="0.6183" style="stop-color:#A9AAAA"/>
					<a:midPointStop  offset="0.5" style="stop-color:#A9AAAA"/>
					<a:midPointStop  offset="0.871" style="stop-color:#868789"/>
					<a:midPointStop  offset="0.5202" style="stop-color:#868789"/>
					<a:midPointStop  offset="1" style="stop-color:#F2F3F3"/>
				</linearGradient>
				<path fill="url(#SVGID_3_)" d="M19.903,0.008c0,0-8.511-0.438-18.165,5.949c0,0,1.18,19.662,18.165,30.686
					c17.9-11.024,19.143-30.686,19.143-30.686C28.871-0.43,19.903,0.008,19.903,0.008z"/>
				<linearGradient id="SVGID_4_" gradientUnits="userSpaceOnUse" x1="3.0952" y1="-0.6768" x2="37.239" y2="28.0256">
					<stop  offset="0" style="stop-color:#606060"/>
					<stop  offset="0.092" style="stop-color:#7D7E7F"/>
					<stop  offset="0.2312" style="stop-color:#B0B2B5"/>
					<stop  offset="0.3543" style="stop-color:#E7E8E8"/>
					<stop  offset="0.4194" style="stop-color:#FFFFFF"/>
					<stop  offset="0.6183" style="stop-color:#A9AAAA"/>
					<stop  offset="0.871" style="stop-color:#868789"/>
					<stop  offset="0.929" style="stop-color:#B4B5B6"/>
					<stop  offset="1" style="stop-color:#F2F3F3"/>
					<a:midPointStop  offset="0" style="stop-color:#606060"/>
					<a:midPointStop  offset="0.53" style="stop-color:#606060"/>
					<a:midPointStop  offset="0.2312" style="stop-color:#B0B2B5"/>
					<a:midPointStop  offset="0.4614" style="stop-color:#B0B2B5"/>
					<a:midPointStop  offset="0.4194" style="stop-color:#FFFFFF"/>
					<a:midPointStop  offset="0.5" style="stop-color:#FFFFFF"/>
					<a:midPointStop  offset="0.6183" style="stop-color:#A9AAAA"/>
					<a:midPointStop  offset="0.5" style="stop-color:#A9AAAA"/>
					<a:midPointStop  offset="0.871" style="stop-color:#868789"/>
					<a:midPointStop  offset="0.5202" style="stop-color:#868789"/>
					<a:midPointStop  offset="1" style="stop-color:#F2F3F3"/>
				</linearGradient>
				<path fill="url(#SVGID_4_)" d="M19.905,36.395C3.994,25.986,2.097,7.722,1.958,6.063c8.479-5.57,16.135-5.853,17.589-5.853
					c0.223,0,0.343,0.006,0.346,0.006c0.024,0,0.149-0.006,0.387-0.006c1.533,0,9.607,0.284,18.547,5.855
					C38.677,7.749,36.665,25.998,19.905,36.395z"/>
				<linearGradient id="SVGID_5_" gradientUnits="userSpaceOnUse" x1="-0.2368" y1="-8.6582" x2="30.439" y2="23.3962">
					<stop  offset="0" style="stop-color:#606060"/>
					<stop  offset="0.092" style="stop-color:#7D7E7F"/>
					<stop  offset="0.2312" style="stop-color:#B0B2B5"/>
					<stop  offset="0.3543" style="stop-color:#E7E8E8"/>
					<stop  offset="0.4194" style="stop-color:#FFFFFF"/>
					<stop  offset="0.6183" style="stop-color:#A9AAAA"/>
					<stop  offset="0.871" style="stop-color:#868789"/>
					<stop  offset="0.929" style="stop-color:#B4B5B6"/>
					<stop  offset="1" style="stop-color:#F2F3F3"/>
					<a:midPointStop  offset="0" style="stop-color:#606060"/>
					<a:midPointStop  offset="0.53" style="stop-color:#606060"/>
					<a:midPointStop  offset="0.2312" style="stop-color:#B0B2B5"/>
					<a:midPointStop  offset="0.4614" style="stop-color:#B0B2B5"/>
					<a:midPointStop  offset="0.4194" style="stop-color:#FFFFFF"/>
					<a:midPointStop  offset="0.5" style="stop-color:#FFFFFF"/>
					<a:midPointStop  offset="0.6183" style="stop-color:#A9AAAA"/>
					<a:midPointStop  offset="0.5" style="stop-color:#A9AAAA"/>
					<a:midPointStop  offset="0.871" style="stop-color:#868789"/>
					<a:midPointStop  offset="0.5202" style="stop-color:#868789"/>
					<a:midPointStop  offset="1" style="stop-color:#F2F3F3"/>
				</linearGradient>
				<path fill="url(#SVGID_5_)" d="M19.943,34.253C6.915,25.325,4.388,10.842,3.947,7.147C11.56,2.36,18.281,2.112,19.58,2.112
					c0.162,0,0.257,0.004,0.278,0.005c0.017,0,0.111,0,0.124,0c0.047-0.002,0.147-0.005,0.301-0.005
					c1.375,0,8.494,0.25,16.548,5.056C36.355,10.9,33.66,25.353,19.943,34.253z"/>
				
					<radialGradient id="SVGID_6_" cx="241.3398" cy="301.3184" r="5.7909" gradientTransform="matrix(3.7037 0 0 3.7037 -873.6445 -1097.8691)" gradientUnits="userSpaceOnUse">
					<stop  offset="0.129" style="stop-color:#1E97D0"/>
					<stop  offset="0.3169" style="stop-color:#14699A"/>
					<stop  offset="0.5021" style="stop-color:#0B426C"/>
					<stop  offset="0.6441" style="stop-color:#062A50"/>
					<stop  offset="0.7258" style="stop-color:#042145"/>
					<stop  offset="1" style="stop-color:#00072A"/>
					<a:midPointStop  offset="0.129" style="stop-color:#1E97D0"/>
					<a:midPointStop  offset="0.4147" style="stop-color:#1E97D0"/>
					<a:midPointStop  offset="0.7258" style="stop-color:#042145"/>
					<a:midPointStop  offset="0.5" style="stop-color:#042145"/>
					<a:midPointStop  offset="1" style="stop-color:#00072A"/>
				</radialGradient>
				<path fill="url(#SVGID_6_)" d="M19.946,34.011C7.344,25.305,4.689,11.498,4.162,7.251c7.531-4.699,14.159-4.938,15.417-4.938
					c0.158,0,0.249,0.004,0.268,0.005c0.004,0,0.142,0,0.142,0c0.045-0.002,0.143-0.005,0.293-0.005
					c1.332,0,8.358,0.242,16.331,4.959C36.051,11.524,33.223,25.327,19.946,34.011z"/>
				<linearGradient id="SVGID_7_" gradientUnits="userSpaceOnUse" x1="45.272" y1="4.0649" x2="17.5826" y2="24.8032">
					<stop  offset="0" style="stop-color:#FFFFFF"/>
					<stop  offset="0.058" style="stop-color:#DDDDDD"/>
					<stop  offset="0.1576" style="stop-color:#AAAAAA"/>
					<stop  offset="0.2617" style="stop-color:#7D7D7D"/>
					<stop  offset="0.3683" style="stop-color:#565656"/>
					<stop  offset="0.4781" style="stop-color:#373737"/>
					<stop  offset="0.5921" style="stop-color:#1F1F1F"/>
					<stop  offset="0.7121" style="stop-color:#0D0D0D"/>
					<stop  offset="0.842" style="stop-color:#030303"/>
					<stop  offset="1" style="stop-color:#000000"/>
					<a:midPointStop  offset="0" style="stop-color:#FFFFFF"/>
					<a:midPointStop  offset="0.2542" style="stop-color:#FFFFFF"/>
					<a:midPointStop  offset="1" style="stop-color:#000000"/>
				</linearGradient>
				<path fill="url(#SVGID_7_)"  a:adobe-blending-mode="colorDodge" d="M30.051,4.872c0.354,4.063,0.577,17.095-9.136,28.076
					c11.791-8.612,14.39-21.328,14.924-25.36C33.165,5.843,29.541,4.706,30.051,4.872z"/>
				<linearGradient id="SVGID_8_" gradientUnits="userSpaceOnUse" x1="28.5249" y1="18.3062" x2="10.5464" y2="18.3062">
					<stop  offset="0" style="stop-color:#FFFFFF"/>
					<stop  offset="0.058" style="stop-color:#DDDDDD"/>
					<stop  offset="0.1576" style="stop-color:#AAAAAA"/>
					<stop  offset="0.2617" style="stop-color:#7D7D7D"/>
					<stop  offset="0.3683" style="stop-color:#565656"/>
					<stop  offset="0.4781" style="stop-color:#373737"/>
					<stop  offset="0.5921" style="stop-color:#1F1F1F"/>
					<stop  offset="0.7121" style="stop-color:#0D0D0D"/>
					<stop  offset="0.842" style="stop-color:#030303"/>
					<stop  offset="1" style="stop-color:#000000"/>
					<a:midPointStop  offset="0" style="stop-color:#FFFFFF"/>
					<a:midPointStop  offset="0.2542" style="stop-color:#FFFFFF"/>
					<a:midPointStop  offset="1" style="stop-color:#000000"/>
				</linearGradient>
				<path fill="url(#SVGID_8_)"  a:adobe-blending-mode="screen" d="M19.854,0.005c-0.665-0.023-8.862-0.17-18.116,5.952
					c0,0,1.179,19.624,18.116,30.654V0.005z"/>
				
					<linearGradient id="SVGID_9_" gradientUnits="userSpaceOnUse" x1="1151.6563" y1="4.0654" x2="1123.9679" y2="24.8029" gradientTransform="matrix(-1 0 0 1 1146.998 0)">
					<stop  offset="0" style="stop-color:#FFFFFF"/>
					<stop  offset="0.058" style="stop-color:#DDDDDD"/>
					<stop  offset="0.1576" style="stop-color:#AAAAAA"/>
					<stop  offset="0.2617" style="stop-color:#7D7D7D"/>
					<stop  offset="0.3683" style="stop-color:#565656"/>
					<stop  offset="0.4781" style="stop-color:#373737"/>
					<stop  offset="0.5921" style="stop-color:#1F1F1F"/>
					<stop  offset="0.7121" style="stop-color:#0D0D0D"/>
					<stop  offset="0.842" style="stop-color:#030303"/>
					<stop  offset="1" style="stop-color:#000000"/>
					<a:midPointStop  offset="0" style="stop-color:#FFFFFF"/>
					<a:midPointStop  offset="0.2542" style="stop-color:#FFFFFF"/>
					<a:midPointStop  offset="1" style="stop-color:#000000"/>
				</linearGradient>
				<path fill="url(#SVGID_9_)"  a:adobe-blending-mode="colorDodge" d="M10.561,4.872c-0.354,4.063-0.577,17.095,9.136,28.076
					C7.908,24.336,5.307,11.62,4.773,7.587C7.447,5.843,11.07,4.706,10.561,4.872z"/>
				<g>
					<path opacity="0.5" fill="#231F20"  a:adobe-blending-mode="overlay" d="M17.936,27.254l-7.41-7.412l3.72-3.721l3.69,3.69
						L28.862,8.886l3.72,3.722L17.936,27.254z"/>
					<linearGradient id="SVGID_10_" gradientUnits="userSpaceOnUse" x1="7.3838" y1="21.3696" x2="33.3942" y2="14.1943">
						<stop  offset="0" style="stop-color:#606060"/>
						<stop  offset="0.092" style="stop-color:#7D7E7F"/>
						<stop  offset="0.2312" style="stop-color:#B0B2B5"/>
						<stop  offset="0.3543" style="stop-color:#E7E8E8"/>
						<stop  offset="0.4194" style="stop-color:#FFFFFF"/>
						<stop  offset="0.6183" style="stop-color:#A9AAAA"/>
						<stop  offset="0.871" style="stop-color:#868789"/>
						<stop  offset="0.929" style="stop-color:#B4B5B6"/>
						<stop  offset="1" style="stop-color:#F2F3F3"/>
						<a:midPointStop  offset="0" style="stop-color:#606060"/>
						<a:midPointStop  offset="0.53" style="stop-color:#606060"/>
						<a:midPointStop  offset="0.2312" style="stop-color:#B0B2B5"/>
						<a:midPointStop  offset="0.4614" style="stop-color:#B0B2B5"/>
						<a:midPointStop  offset="0.4194" style="stop-color:#FFFFFF"/>
						<a:midPointStop  offset="0.5" style="stop-color:#FFFFFF"/>
						<a:midPointStop  offset="0.6183" style="stop-color:#A9AAAA"/>
						<a:midPointStop  offset="0.5" style="stop-color:#A9AAAA"/>
						<a:midPointStop  offset="0.871" style="stop-color:#868789"/>
						<a:midPointStop  offset="0.5202" style="stop-color:#868789"/>
						<a:midPointStop  offset="1" style="stop-color:#F2F3F3"/>
					</linearGradient>
					<polygon fill="url(#SVGID_10_)" points="18.16,25.734 11.087,18.661 14.469,15.279 18.16,18.969 29.086,8.043 32.467,11.426 
											"/>
					<linearGradient id="SVGID_11_" gradientUnits="userSpaceOnUse" x1="14.1694" y1="6.4209" x2="27.6237" y2="21.669">
						<stop  offset="0" style="stop-color:#606060"/>
						<stop  offset="0.092" style="stop-color:#7D7E7F"/>
						<stop  offset="0.2312" style="stop-color:#B0B2B5"/>
						<stop  offset="0.3543" style="stop-color:#E7E8E8"/>
						<stop  offset="0.4194" style="stop-color:#FFFFFF"/>
						<stop  offset="0.6183" style="stop-color:#A9AAAA"/>
						<stop  offset="0.871" style="stop-color:#868789"/>
						<stop  offset="0.929" style="stop-color:#B4B5B6"/>
						<stop  offset="1" style="stop-color:#F2F3F3"/>
						<a:midPointStop  offset="0" style="stop-color:#606060"/>
						<a:midPointStop  offset="0.53" style="stop-color:#606060"/>
						<a:midPointStop  offset="0.2312" style="stop-color:#B0B2B5"/>
						<a:midPointStop  offset="0.4614" style="stop-color:#B0B2B5"/>
						<a:midPointStop  offset="0.4194" style="stop-color:#FFFFFF"/>
						<a:midPointStop  offset="0.5" style="stop-color:#FFFFFF"/>
						<a:midPointStop  offset="0.6183" style="stop-color:#A9AAAA"/>
						<a:midPointStop  offset="0.5" style="stop-color:#A9AAAA"/>
						<a:midPointStop  offset="0.871" style="stop-color:#868789"/>
						<a:midPointStop  offset="0.5202" style="stop-color:#868789"/>
						<a:midPointStop  offset="1" style="stop-color:#F2F3F3"/>
					</linearGradient>
					<path fill="url(#SVGID_11_)" d="M18.16,26.073l-7.411-7.412l3.72-3.72l3.69,3.69L29.086,7.706l3.72,3.72L18.16,26.073z
						 M11.426,18.661l6.734,6.736l13.97-13.971l-3.044-3.044L18.16,19.307l-3.69-3.69L11.426,18.661z"/>
				</g>
			</g>
		</g>
	</g>
</g>
</svg>
